<?xml version="1.0" standalone="no"?>
<!DOCTYPE svg PUBLIC "-//W3C//DTD SVG 20010904//EN"
 "http://www.w3.org/TR/2001/REC-SVG-20010904/DTD/svg10.dtd">
<svg version="1.0" xmlns="http://www.w3.org/2000/svg"
 width="500.000000pt" height="500.000000pt" viewBox="0 0 500.000000 500.000000"
 preserveAspectRatio="xMidYMid meet">
<metadata>
Created by potrace 1.15, written by Peter Selinger 2001-2017
</metadata>
<g transform="translate(0.000000,500.000000) scale(0.100000,-0.100000)"
fill="#000000" stroke="none">
<path d="M2448 2633 c-13 -13 -18 -14 -18 -4 0 11 -13 13 -54 8 -70 -7 -140
-38 -162 -72 -17 -26 -17 -28 0 -40 9 -7 46 -19 81 -26 48 -9 62 -16 58 -27
-3 -8 0 -18 8 -22 16 -11 -26 -29 -83 -37 -29 -4 -39 -1 -49 15 -10 16 -16 18
-26 10 -61 -50 77 -81 173 -39 l47 21 56 -32 c77 -45 91 -50 107 -37 21 17 18
23 -28 49 -39 22 -40 24 -22 37 10 8 53 32 95 53 65 33 89 54 89 76 0 16 -53
-4 -131 -51 -50 -31 -93 -54 -95 -52 -3 2 0 27 6 55 16 74 10 126 -15 130 -11
1 -28 -5 -37 -15z"/>
</g>
</svg>
