<svg xmlns="http://www.w3.org/2000/svg" id="Layer_1" enable-background="new 0 0 128 128" version="1" viewBox="0 0 128 128"><g id="g3438"><path id="XMLID_3041_" fill="#ea5f6e" d="m 64,82.952698 c -18.045105,0 -34.305725,7.598694 -45.791199,19.756472 C 29.694275,114.86694 45.954895,122.4657 64,122.4657 c 18.045105,0 34.305725,-7.59876 45.7912,-19.75653 C 98.305725,90.551392 82.045105,82.952698 64,82.952698 Z"/><path id="XMLID_3040_" fill="#d34a5e" d="m 101.95026,109.71564 c 2.80163,-2.12085 5.43188,-4.45636 7.84094,-7.00647 C 98.305725,90.551392 82.045105,82.952698 64,82.952698 c -1.354919,0 -2.695923,0.05664 -4.029419,0.141052 17.66449,2.185608 32.869995,12.271668 41.979679,26.62189 z"/><path id="XMLID_3039_" fill="#ff667c" d="m 26.049744,109.71564 c -2.801636,-2.12085 -5.431885,-4.45636 -7.840943,-7.00647 C 29.694275,90.551392 45.954895,82.952698 64,82.952698 c 1.354919,0 2.695923,0.05664 4.029419,0.141052 -17.66449,2.185608 -32.869995,12.271668 -41.979675,26.62189 z"/><path id="XMLID_3038_" fill="#f4ceae" d="m 41,48.97131 c 0,2.209133 -1.790859,3.999992 -3.999996,3.999992 l -8e-6,0 C 34.790859,52.971302 33,51.180443 33,48.97131 l 0,-7.000012 c 0,-2.209137 1.790859,-3.999996 3.999996,-3.999996 l 8e-6,0 C 39.209141,37.971302 41,39.762161 41,41.971298 l 0,7.000012 z"/><path id="XMLID_3037_" fill="#eeb490" d="m 95,48.847698 c 0,2.209137 -1.790855,3.999996 -3.999992,3.999996 l -1.6e-5,0 C 88.790855,52.847694 87,51.056835 87,48.847698 l 0,-7.000007 c 0,-2.209137 1.790855,-3.999997 3.999992,-3.999997 l 1.6e-5,0 c 2.209137,0 3.999992,1.79086 3.999992,3.999997 l 0,7.000007 z"/><path id="XMLID_3036_" fill="none" stroke="#234957" stroke-miterlimit="10" stroke-width="2" d="m 41,48.97131 c 0,2.209133 -1.790859,3.999992 -3.999996,3.999992 l -8e-6,0 C 34.790859,52.971302 33,51.180443 33,48.97131 l 0,-7.000012 c 0,-2.209137 1.790859,-3.999996 3.999996,-3.999996 l 8e-6,0 C 39.209141,37.971302 41,39.762161 41,41.971298 l 0,7.000012 z"/><path id="XMLID_3035_" fill="none" stroke="#234957" stroke-miterlimit="10" stroke-width="2" d="m 95,48.847698 c 0,2.209137 -1.790855,3.999996 -3.999992,3.999996 l -1.6e-5,0 C 88.790855,52.847694 87,51.056835 87,48.847698 l 0,-7.000007 c 0,-2.209137 1.790855,-3.999997 3.999992,-3.999997 l 1.6e-5,0 c 2.209137,0 3.999992,1.79086 3.999992,3.999997 l 0,7.000007 z"/><path id="XMLID_3034_" fill="none" stroke="#234957" stroke-miterlimit="10" stroke-width="2" d="m 64,81.952698 c -18.045105,0 -34.305725,7.598694 -45.791199,19.756472 C 29.694275,113.86694 45.954895,121.4657 64,121.4657 c 18.045105,0 34.305725,-7.59876 45.7912,-19.75653 C 98.305725,89.551392 82.045105,81.952698 64,81.952698 Z"/><path id="XMLID_3033_" fill="#f4ceae" d="M 74.015564,71.52301 74,82.382378 c 0,5.522842 -4.47715,9.999992 -9.999992,9.999992 l -2e-5,0 C 58.477146,92.38237 54,87.90522 54,82.382378 L 54.01556,71.52301"/><path id="XMLID_3032_" fill="#f4ceae" d="M 74.015564,71.52301 74,82.382378 c 0,5.522842 -4.47715,9.999992 -9.999992,9.999992 l -2e-5,0 C 58.477146,92.38237 54,87.90522 54,82.382378 L 54.01556,71.52301"/><path id="XMLID_3031_" fill="#eeb490" d="M 68.01416,71 68,81.12088 c 0,5.036865 -3.727722,9.322952 -8.572571,10.017227 1.371399,0.707154 2.923279,1.178841 4.572571,1.178841 5.522827,0 10,-4.705925 10,-10.228752 L 74.015564,71 68.01416,71 Z"/><path id="XMLID_3030_" fill="#608287" d="m 54,12 -7,0 C 43.157165,12 40.040649,9.135498 40.003479,5.3014526 36.056641,5.7929688 33,9.3856812 33,13.465698 l 0,11 C 33,28.883972 36.581726,32 41,32 l 14,0 9,0 26,0 c 1.656853,0 3,-0.904051 3,-2.555172 L 93,16.420607 C 93,14.219112 91.209137,12 89,12 l -21,0 -14,0 z"/><path id="XMLID_3029_" fill="#90aaaf" d="m 49,24.465698 0,-11 C 49,13.12616 49.028565,13 49.069641,12 L 47,12 C 45.989868,12 45.032532,12.0141 44.165527,11.628967 44.059753,12.147522 44,12.91571 44,13.465698 l 0,11 C 44,28.883972 47.581726,32 52,32 l 3,0 2,0 c -4.418274,0 -8,-3.116028 -8,-7.534302 z"/><g id="XMLID_3026_"><path id="XMLID_3028_" fill="#4e676d" d="m 37,12 7,0 3,0 C 43.157165,12 40.040649,9.135498 40.003479,5.3014526 36.753113,5.7062378 34.111145,7.9417419 33.278259,11.037384 34.356811,11.717377 35.630371,12 37,12 Z"/><path id="XMLID_3027_" fill="#4e676d" d="m 89,12 -10,0 c 2.209168,0 4,2.219116 4,4.420593 l 0,13.024231 C 83,31.095947 81.65686,32 80,32 l 10,0 c 1.65686,0 3,-0.904053 3,-2.555176 L 93,16.420593 C 93,14.219116 91.209168,12 89,12 Z"/></g><path id="XMLID_3025_" fill="#90aaaf" d="m 38,24.465698 0,-11 C 38,11.231811 38.920349,9.2177734 40.397461,7.7682495 40.153015,7.0667724 40.011047,6.3173218 40.003479,5.5343017 36.056641,6.0258179 33,9.3856812 33,13.465698 l 0,11 C 33,28.883972 36.581726,32 41,32 l 5,0 c -4.418274,0 -8,-3.116028 -8,-7.534302 z"/><path id="XMLID_3024_" fill="#f4ceae" stroke="#000" stroke-miterlimit="10" stroke-width="2" d="m 90,32.465698 0,20.690025 C 90,66.962829 78.807129,78.155701 65.000023,78.155701 l -2.00005,0 C 49.192871,78.155701 38,66.96283 38,53.155724 l 0,-20.690026"/><path id="XMLID_3023_" fill="#f4ceae" d="m 89.999992,32.15321 0,20.690014 c 0,13.807106 -11.192871,24.999977 -24.999977,24.999977 l -2.000049,0 c -13.807106,0 -24.999977,-11.192871 -24.999977,-24.999977 l 0,-20.690014"/><path id="XMLID_3022_" fill="#eeb490" d="m 83,32 0,21.155701 C 83,66.118957 73.133118,76.698578 60.5,77.953034 61.322388,78.034699 62.156128,78 63,78 l 2,0 C 78.807129,78 90,66.96283 90,53.155701 L 90,32 83,32 Z"/><path id="XMLID_3021_" fill="#fff" d="m 45,32.465698 0,20.690003 c 0,12.963256 10.116882,23.775726 22.75,25.030182 -0.822388,0.08167 -1.406128,0.279815 -2.25,0.279815 l -2,0 C 49.692871,78.465698 38,66.962829 38,53.155701 l 0,-20.690003 7,0 z" opacity=".16"/><rect id="XMLID_3020_" width="52" height="6" x="38" y="32" fill="#eeb490"/><path id="XMLID_3019_" fill="none" stroke="#234957" stroke-linecap="round" stroke-linejoin="round" stroke-miterlimit="10" stroke-width="2" d="m 74.031441,62.734898 c -2.384392,2.889217 -5.992859,4.7308 -10.031441,4.7308 -4.021053,0 -7.615707,-1.82563 -10.000317,-4.693233"/><circle id="XMLID_3018_" cx="52.504" cy="43.959" r="2.5" fill="#234957"/><path id="XMLID_3017_" fill="none" stroke="#234957" stroke-linecap="round" stroke-linejoin="round" stroke-miterlimit="10" stroke-width="2" d="m 72.905106,43.957718 c 0.520652,-0.889069 1.485901,-1.486168 2.590606,-1.486168 1.109963,0 2.079132,0.602798 2.598007,1.498886"/><g id="XMLID_3015_"><line id="XMLID_3016_" x1="63" x2="64" y1="55" y2="55" stroke="#234957" stroke-linecap="round" stroke-linejoin="round" stroke-miterlimit="10" stroke-width="2"/></g><path id="XMLID_3014_" fill="none" stroke="#234957" stroke-linecap="round" stroke-linejoin="round" stroke-miterlimit="10" stroke-width="2" d="m 90,32.465698 0,20.690025 C 90,66.962829 78.807129,78.155701 65.000023,78.155701 l -2.00005,0 C 49.192871,78.155701 38,66.96283 38,53.155724 l 0,-20.690026"/><path id="XMLID_3012_" fill="none" stroke="#234957" stroke-linecap="round" stroke-linejoin="round" stroke-miterlimit="10" stroke-width="2" d="m 63,12.434448 -16,0 c -3.842835,0 -6.959351,-2.864502 -6.996521,-6.6985474 C 36.056641,6.2274168 33,9.8201292 33,13.900146 l 0,11 c 0,4.418274 3.581726,7.534302 8,7.534302 l 14,0 3,0 32.010384,0 C 91.661499,32.434448 93,31.095949 93,29.444828 l 0,-11.01038 c 0,-3.313708 -2.686295,-6 -6,-6 l -19,0 z"/><path id="XMLID_3011_" fill="none" stroke="#234957" stroke-miterlimit="10" stroke-width="2" d="M 74.015564,76.52301 74,82.382378 c 0,5.522842 -4.47715,9.999992 -9.999992,9.999992 l -2e-5,0 C 58.477146,92.38237 54,87.90522 54,82.382378 l 0.01556,-5.859368"/><circle id="XMLID_3010_" cx="64.214" cy="100.12" r="1.786" fill="#d34a5e"/><circle id="XMLID_3009_" cx="64.214" cy="107.12" r="1.786" fill="#d34a5e"/><circle id="XMLID_3008_" cx="64.214" cy="114.12" r="1.786" fill="#d34a5e"/><g id="XMLID_3006_"><path id="XMLID_3007_" fill="#608287" d="m 56.111912,37.804962 c 2.262821,0 4.148506,1.8857 4.148506,4.148495 l 0,0 c 0,6.034199 -4.902779,10.93697 -10.811253,10.93697 l 0,0 c -2.76567,0 -5.279915,-1.508549 -6.53704,-3.771374 -1.382832,-2.388534 -1.382832,-5.279892 0,-7.542717 1.257126,-2.388531 3.77137,-3.771374 6.53704,-3.771374 l 6.662747,0 z"/></g><path id="XMLID_3005_" fill="#90aaaf" d="M 45.785889,51.536255 52.577087,37 49.449158,37 c -0.06982,0 -0.137146,0.413635 -0.206604,0.415405 l -5.8125,12.096863 c 0.622619,0.830139 1.432434,1.51593 2.355835,2.023987 z"/><path id="XMLID_3004_" fill="#90aaaf" d="m 47.14386,52.115234 c 0.651001,0.207642 1.3349,0.531128 2.040283,0.556031 l 6.98938,-15.363068 C 56.152588,37.307892 56.132996,37 56.111938,37 l -2.14038,0 -6.827698,15.115234 z"/><g id="XMLID_3002_"><path id="XMLID_3003_" fill="#608287" d="m 71.763084,37.804962 c -2.262817,0 -4.148498,1.8857 -4.148498,4.148495 l 0,0 c 0,6.034199 4.902778,10.93697 10.811249,10.93697 l 0,0 c 2.76567,0 5.279915,-1.508549 6.53704,-3.771374 1.382836,-2.388534 1.382836,-5.279892 0,-7.542717 -1.257126,-2.388531 -3.771369,-3.771374 -6.53704,-3.771374 l -6.662751,0 z"/></g><g id="XMLID_3000_"><path id="XMLID_3001_" fill="none" stroke="#234957" stroke-width="2" d="m 56.111912,37.804962 c 2.262821,0 4.148506,1.8857 4.148506,4.148495 l 0,0 c 0,6.034199 -4.902779,10.93697 -10.811253,10.93697 l 0,0 c -2.76567,0 -5.279915,-1.508549 -6.53704,-3.771374 -1.382832,-2.388534 -1.382832,-5.279892 0,-7.542717 1.257126,-2.388531 3.77137,-3.771374 6.53704,-3.771374 l 6.662747,0 z"/></g><path id="XMLID_2999_" fill="#90aaaf" d="m 78.425842,37 -3.112671,0 -5.285705,11.403076 c 0.659363,0.823303 1.432129,1.749512 2.295044,2.351624 L 78.635193,37.314972 C 78.564819,37.313141 78.496582,37 78.425842,37 Z"/><path id="XMLID_2998_" fill="#90aaaf" d="m 73.578491,51.705078 c 0.592041,0.304016 1.212342,0.555786 1.858582,0.746277 L 81.863525,38.603149 C 81.26593,38.309204 80.625977,38.095581 79.954407,37.96582 l -6.375916,13.739258 z"/><g id="XMLID_2996_"><path id="XMLID_2997_" fill="none" stroke="#234957" stroke-width="2" d="m 71.763084,37.804962 c -2.262817,0 -4.148498,1.8857 -4.148498,4.148495 l 0,0 c 0,6.034199 4.902778,10.93697 10.811249,10.93697 l 0,0 c 2.76567,0 5.279915,-1.508549 6.53704,-3.771374 1.382836,-2.388534 1.382836,-5.279892 0,-7.542717 -1.257126,-2.388531 -3.771369,-3.771374 -6.53704,-3.771374 l -6.662751,0 z"/></g><line id="XMLID_2995_" x1="56.583" x2="71.292" y1="37.805" y2="37.805" fill="none" stroke="#234957" stroke-linecap="round" stroke-linejoin="round" stroke-width="2"/><line id="XMLID_2994_" x1="60.26" x2="67.41" y1="42.42" y2="42.42" fill="none" stroke="#234957" stroke-linecap="round" stroke-linejoin="round" stroke-width="2"/><line id="XMLID_2993_" x1="38" x2="50" y1="37.805" y2="37.805" fill="#608287" stroke="#234957" stroke-linecap="round" stroke-linejoin="round" stroke-width="2"/><line id="XMLID_2992_" x1="78" x2="90" y1="37.805" y2="37.805" fill="#608287" stroke="#234957" stroke-linecap="round" stroke-linejoin="round" stroke-width="2"/></g></svg>