<svg xmlns="http://www.w3.org/2000/svg" width="64" height="64" enable-background="new 0 0 64 64" viewBox="0 0 64 64"><path fill="#2D2F64" d="M51.287,38.061c-1.58-0.659-3.258-1.173-4.887-1.678l-1.067-0.33c-4.887-1.542-7.379-2.938-7.146-6.099
		c2.144-1.542,4.393-4.044,5.77-8.059h1.591c0.892,0,1.678-0.63,1.881-1.6c0.155-1.251,0.378-2.396,0.698-3.462
		c0.116-0.563-0.02-1.135-0.378-1.581c-0.359-0.446-0.902-0.708-1.484-0.708h-1.037c0.049-1.552,0-3.249-0.175-5.081
		c-0.028-0.262-0.087-0.504-0.164-0.708C43.025,3.52,37.848,0,32,0S20.975,3.52,19.122,8.737c-0.087,0.223-0.146,0.466-0.174,0.737
		c-0.175,1.833-0.233,3.52-0.175,5.071h-1.028c-0.581,0-1.125,0.262-1.493,0.708c-0.358,0.446-0.494,1.018-0.358,1.658
		c0.3,0.989,0.533,2.133,0.698,3.471c0.184,0.883,0.97,1.513,1.861,1.513h1.591c1.377,4.015,3.626,6.517,5.76,8.049
		c0.262,3.181-2.134,4.528-7.137,6.109l-1.067,0.33c-1.629,0.504-3.307,1.019-4.887,1.678c-8.359,3.472-9.494,9.319-9.494,14.584
		V63.03c0,0.533,0.438,0.97,0.971,0.97h55.621c0.533,0,0.97-0.437,0.97-0.97V52.645C60.78,47.379,59.646,41.532,51.287,38.061z
		 M45.091,16.475h1.125c-0.311,1.038-0.543,2.211-0.698,3.481h-1.009C44.761,18.89,44.965,17.736,45.091,16.475z M18.482,19.956
		c-0.155-1.26-0.388-2.434-0.688-3.471h1.115c0.126,1.261,0.32,2.405,0.582,3.471H18.482z M20.877,9.678
		c0.011-0.097,0.029-0.185,0.059-0.272C22.497,5.013,27.045,1.939,32,1.939s9.503,3.074,11.064,7.486
		c0.029,0.068,0.048,0.155,0.058,0.243c0.165,1.716,0.214,3.335,0.146,4.877h-1.784c-0.446-1.872-2.123-3.277-4.131-3.277
		c-1.697,0-3.151,1.008-3.83,2.453c-0.97-0.301-2.075-0.301-3.045,0c-0.679-1.445-2.134-2.453-3.83-2.453
		c-2.008,0-3.685,1.406-4.131,3.277h-1.784C20.664,13.013,20.713,11.394,20.877,9.678z M39.67,15.515
		c0,1.28-1.037,2.317-2.317,2.317c-1.271,0-2.308-1.037-2.308-2.317c0-1.271,1.037-2.308,2.308-2.308
		C38.633,13.208,39.67,14.245,39.67,15.515z M28.955,15.515c0,1.28-1.037,2.317-2.308,2.317c-1.28,0-2.317-1.037-2.317-2.317
		c0-1.271,1.037-2.308,2.317-2.308C27.918,13.208,28.955,14.245,28.955,15.515z M20.858,16.485h1.658
		c0.437,1.881,2.113,3.287,4.131,3.287c2.298,0,4.179-1.852,4.237-4.15c0.679-0.262,1.552-0.262,2.23,0
		c0.058,2.298,1.939,4.15,4.237,4.15c2.018,0,3.694-1.406,4.131-3.287l1.658-0.01c-0.582,5.459-2.725,9.581-6.265,12.024
		c-0.097,0.048-0.174,0.097-0.252,0.165c-0.523,0.349-1.066,0.669-1.648,0.941c-1.861,0.863-4.092,0.863-5.953,0
		C24.34,27.423,21.547,22.856,20.858,16.485z M27.724,31.118c0.165,0.087,0.33,0.174,0.485,0.242
		c1.183,0.553,2.491,0.844,3.791,0.844s2.608-0.291,3.791-0.844c0.155-0.068,0.32-0.165,0.485-0.242
		c0.456,3.859,4.344,5.44,7.496,6.468l-6.585,17.357l-1.716-10.977c0.311-0.106,0.563-0.378,0.63-0.717l1.096-5.11
		c0.059-0.291-0.01-0.592-0.193-0.814c-0.185-0.223-0.466-0.359-0.757-0.359h-8.494c-0.291,0-0.572,0.136-0.757,0.359
		c-0.184,0.223-0.252,0.523-0.193,0.814l1.096,5.11c0.067,0.339,0.319,0.611,0.63,0.717l-1.716,10.977l-6.585-17.357
		C23.506,36.519,27.307,34.977,27.724,31.118z M35.055,38.904l-0.679,3.171h-4.752l-0.679-3.171H35.055z M15.622,62.061v-7.166
		c0-0.533-0.437-0.97-0.97-0.97c-0.543,0-0.97,0.437-0.97,0.97v7.166H5.158v-9.416c0-5.615,1.416-9.939,8.291-12.8
		c1.504-0.611,3.143-1.125,4.723-1.61l0.204-0.067l9.066,23.893H15.622z M34.492,62.061h-4.984l-1.31-3.462l2.289-14.584h3.025
		l2.288,14.584L34.492,62.061z M58.841,62.061h-8.523v-7.166c0-0.533-0.427-0.97-0.97-0.97c-0.533,0-0.97,0.437-0.97,0.97v7.166
		h-11.82l9.066-23.893l0.204,0.067c1.58,0.485,3.219,0.999,4.712,1.61c6.886,2.861,8.301,7.186,8.301,12.8V62.061z"/><path fill="#ECF3FB" d="M39.67 15.515c0 1.28-1.037 2.317-2.317 2.317-1.271 0-2.308-1.037-2.308-2.317 0-1.271 1.037-2.308 2.308-2.308C38.633 13.208 39.67 14.245 39.67 15.515zM28.955 15.515c0 1.28-1.037 2.317-2.308 2.317-1.28 0-2.317-1.037-2.317-2.317 0-1.271 1.037-2.308 2.317-2.308C27.918 13.208 28.955 14.245 28.955 15.515z"/><path fill="#F3C88C" d="M19.491 19.956h-1.009c-.155-1.26-.388-2.434-.688-3.471h1.115C19.035 17.746 19.229 18.89 19.491 19.956zM46.216 16.475c-.311 1.038-.543 2.211-.698 3.481h-1.009c.252-1.066.456-2.22.582-3.481H46.216z"/><path fill="#FFE5AB" d="M43.268 14.545h-1.784c-.446-1.872-2.123-3.277-4.131-3.277-1.697 0-3.151 1.008-3.83 2.453-.97-.301-2.075-.301-3.045 0-.679-1.445-2.134-2.453-3.83-2.453-2.008 0-3.685 1.406-4.131 3.277h-1.784c-.068-1.532-.02-3.151.145-4.868.011-.097.029-.185.059-.272C22.497 5.013 27.045 1.939 32 1.939s9.503 3.074 11.064 7.486c.029.068.048.155.058.243C43.287 11.384 43.336 13.003 43.268 14.545zM41.483 16.485c-.437 1.881-2.113 3.287-4.131 3.287-2.298 0-4.18-1.852-4.237-4.15-.679-.262-1.552-.262-2.23 0-.059 2.298-1.939 4.15-4.237 4.15-2.018 0-3.694-1.406-4.131-3.287h-1.658c.688 6.371 3.481 10.938 8.165 13.12 1.861.863 4.092.863 5.953 0 .582-.271 1.125-.592 1.648-.941.078-.068.155-.116.252-.165 3.54-2.444 5.683-6.565 6.265-12.024L41.483 16.485zM36.237 25.455c-.097.029-.203.048-.311.048-.397 0-.775-.252-.911-.659-.349-1.028-1.58-1.774-2.986-1.804-1.396-.029-2.667.649-3.055 1.668-.194.495-.757.747-1.261.543-.494-.194-.747-.756-.553-1.251.698-1.784 2.667-2.929 4.916-2.899 2.24.048 4.16 1.309 4.771 3.123C37.023 24.728 36.752 25.28 36.237 25.455z"/><polygon fill="#FEDC7C" points="35.055 38.904 34.376 42.075 29.624 42.075 28.945 38.904"/><polygon fill="#FEDC7C" points="35.801 58.599 34.492 62.061 29.508 62.061 28.198 58.599 30.487 44.015 33.513 44.015"/><polygon fill="#FEDC7C" points="35.801 58.599 34.492 62.061 29.508 62.061 28.198 58.599 30.487 44.015 33.513 44.015"/><polygon fill="#ECC35F" points="35.46 59.5 34.49 62.06 29.51 62.06 28.54 59.5"/><path fill="#41C4DF" d="M15.622 62.061v-7.166c0-.533-.437-.97-.97-.97-.543 0-.97.437-.97.97v7.166H5.158v-9.416c0-5.615 1.416-9.939 8.291-12.8 1.504-.611 3.143-1.125 4.723-1.61l.204-.067 9.066 23.893H15.622zM58.841 52.645v9.416h-8.523v-7.166c0-.533-.427-.97-.97-.97-.533 0-.97.437-.97.97v7.166h-11.82l9.066-23.893.204.067c1.58.485 3.219.999 4.712 1.61C57.426 42.706 58.841 47.03 58.841 52.645z"/><path fill="#F3C88C" d="M43.27 14.55H41.48c-.091-.38-.23-.729-.4-1.06 0-.88-.05-1.8-.141-2.76-.01-.07-.02-.14-.039-.2C39.64 6.85 35.98 4.29 32 4.29s-7.641 2.56-8.9 6.22c-.02.08-.029.15-.04.23-.09.96-.14 1.87-.14 2.75-.17.33-.311.68-.4 1.06H20.73c-.07-1.54-.021-3.16.149-4.87.01-.1.03-.189.06-.27C22.5 5.01 27.04 1.94 32 1.94s9.5 3.07 11.06 7.49c.03.061.05.15.061.24C43.29 11.38 43.34 13 43.27 14.55zM43.14 16.48c-.58 5.45-2.72 9.58-6.26 12.02-.1.05-.18.1-.25.16-.53.35-1.07.67-1.649.94-1.86.87-4.101.87-5.961 0-4.68-2.18-7.47-6.74-8.16-13.12h1.66c.141.6.41 1.16.771 1.64.819 4.43 2.96 7.63 6.319 9.25 1.49.72 3.291.72 4.78 0 .47-.23.91-.5 1.33-.79.061-.06.12-.1.2-.14 2.48-1.77 4.11-4.61 4.79-8.32.36-.48.63-1.04.771-1.64H43.14z"/><path fill="#2AB1D4" d="M9.6,51.87v7.63h4.08v2.56H5.16v-9.42c0-5.61,1.41-9.93,8.29-12.8c1.5-0.61,3.14-1.12,4.72-1.6l0.21-0.07
		l0.9,2.38c-0.94,0.29-1.88,0.6-2.761,0.95C10.78,43.82,9.6,47.32,9.6,51.87z"/><polygon fill="#2AB1D4" points="27.439 62.06 15.62 62.06 15.62 59.5 26.47 59.5"/>
		<path fill="#2AB1D4" d="M58.84,52.64v9.42h-8.52V59.5h4.08v-7.63c0-4.55-1.181-8.05-6.931-10.37c-0.87-0.35-1.81-0.66-2.75-0.95
		l0.9-2.38l0.21,0.07c1.58,0.48,3.22,0.99,4.71,1.6C57.43,42.71,58.84,47.03,58.84,52.64z"/><polygon fill="#2AB1D4" points="48.38 59.5 48.38 62.06 36.56 62.06 37.53 59.5"/><path fill="#2AB1D4" d="M43.772,37.585l-6.585,17.357l-1.716-10.977c0.311-0.106,0.563-0.378,0.63-0.717l1.096-5.11
		c0.059-0.291-0.01-0.592-0.193-0.814c-0.185-0.223-0.466-0.359-0.757-0.359h-8.494c-0.291,0-0.572,0.136-0.757,0.359
		c-0.184,0.223-0.252,0.523-0.193,0.814l1.096,5.11c0.067,0.339,0.319,0.611,0.63,0.717l-1.716,10.977l-6.585-17.357
		c3.278-1.067,7.079-2.608,7.496-6.468c0.165,0.087,0.33,0.174,0.485,0.242c1.183,0.553,2.491,0.844,3.791,0.844
		s2.608-0.291,3.791-0.844c0.155-0.068,0.32-0.165,0.485-0.242C36.732,34.977,40.62,36.558,43.772,37.585z"/>
		<path fill="#2D2F64" d="M36.237,25.455c-0.097,0.029-0.203,0.048-0.311,0.048c-0.397,0-0.775-0.252-0.911-0.659
		c-0.349-1.028-1.58-1.774-2.986-1.804c-1.396-0.029-2.667,0.649-3.055,1.668c-0.194,0.495-0.757,0.747-1.261,0.543
		c-0.494-0.194-0.747-0.756-0.553-1.251c0.698-1.784,2.667-2.929,4.916-2.899c2.24,0.048,4.16,1.309,4.771,3.123
		C37.023,24.728,36.752,25.28,36.237,25.455z"/></svg>