<?xml version="1.0" encoding="UTF-8"?>
<!DOCTYPE svg PUBLIC "-//W3C//DTD SVG 1.1//EN" "http://www.w3.org/Graphics/SVG/1.1/DTD/svg11.dtd">
<svg xmlns="http://www.w3.org/2000/svg" xmlns:xlink="http://www.w3.org/1999/xlink" xml:space="preserve" width="6.82666in" height="6.82666in" style="shape-rendering:geometricPrecision; text-rendering:geometricPrecision; image-rendering:optimizeQuality; fill-rule:evenodd; clip-rule:evenodd" viewBox="0 0 6.82666 6.82666">
 <defs>
  <style type="text/css">
   <![CDATA[
    .fil4 {fill:none}
    .fil1 {fill:#B7B7B7}
    .fil2 {fill:#CE93D8}
    .fil3 {fill:#F5CEB8}
    .fil0 {fill:#1A1A1A;fill-rule:nonzero}
   ]]>
  </style>
 </defs>
 <g id="Layer_x0020_1">
  
  <path class="fil0" d="M2.40407 1.35246c-0.20822,0.20822 -0.337465,0.495366 -0.337465,0.81115l0 2.02074c0,0.315783 0.129244,0.602925 0.337465,0.811146 0.467693,0.467705 1.55084,0.467705 2.01853,0 0.208224,-0.20822 0.337469,-0.495362 0.337469,-0.811146l0 -2.02074c0,-0.315783 -0.129244,-0.602929 -0.337469,-0.81115 -0.467705,-0.467705 -1.55082,-0.467701 -2.01853,0zm2.13166 -0.113126c0.23715,0.237146 0.384343,0.564323 0.384343,0.924276l0 2.02074c0,0.359953 -0.147193,0.687126 -0.384343,0.924272 -0.530102,0.53011 -1.71468,0.53011 -2.24478,0 -0.237142,-0.237142 -0.384339,-0.564319 -0.384339,-0.924272l0 -2.02074c0,-0.359953 0.147197,-0.687134 0.384339,-0.924276 0.530118,-0.530106 1.71467,-0.530114 2.24478,0z" style="fill: #1A1A1A; fill-rule: nonzero;"/>
  <path class="fil0" d="M3.41333 1.51738c-0.263311,0 -0.501827,0.115409 -0.674579,0.30198 -0.174268,0.188213 -0.282063,0.448953 -0.282063,0.737594 0,0.288642 0.107795,0.549382 0.282063,0.737594 0.172752,0.186571 0.411268,0.30198 0.674579,0.30198 0.263311,0 0.501827,-0.115409 0.674579,-0.30198 0.174268,-0.188213 0.282063,-0.448953 0.282063,-0.737594 0,-0.288642 -0.107795,-0.549382 -0.282063,-0.737594 -0.172752,-0.186571 -0.411268,-0.30198 -0.674579,-0.30198zm-0.791453 0.193854c0.202429,-0.218626 0.482248,-0.353854 0.791453,-0.353854 0.309205,0 0.589024,0.135228 0.791453,0.353854 0.200913,0.216988 0.325189,0.516043 0.325189,0.84572 0,0.329677 -0.124276,0.628732 -0.325189,0.84572 -0.202429,0.218626 -0.482248,0.353854 -0.791453,0.353854 -0.309205,0 -0.589024,-0.135228 -0.791453,-0.353854 -0.200913,-0.216988 -0.325189,-0.516043 -0.325189,-0.84572 0,-0.329677 0.124276,-0.628732 0.325189,-0.84572z" style="fill: #1A1A1A; fill-rule: nonzero;"/>
  <path class="fil0" d="M2.47911 1.99114c-0.0441811,0 -0.08,0.0358189 -0.08,0.08 0,0.0441811 0.0358189,0.08 0.08,0.08l1.81807 0c0.11052,0.255854 0.544157,1.61178 -2.09862,2.68911 -0.0409016,0.0165669 -0.0606299,0.0631614 -0.044063,0.104063 0.0165669,0.0409016 0.0631614,0.0606299 0.104063,0.044063 2.99928,-1.22266 2.21398,-2.84924 2.16222,-2.94946 -0.0123976,-0.0281299 -0.0405236,-0.0477717 -0.0732362,-0.0477717l-1.86844 0z" style="fill: #1A1A1A; fill-rule: nonzero;"/>
  <path class="fil0" d="M1.9127 4.31046c-0.129799,0.0653622 -0.241374,0.161878 -0.324665,0.279531 -0.101071,0.142768 -0.160614,0.317134 -0.160614,0.505142l0 0.716531c1.32394,0 2.64789,0 3.97183,0l0 -0.716531c0,-0.188004 -0.0595394,-0.362374 -0.16061,-0.505142 -0.0832913,-0.117654 -0.194866,-0.214169 -0.324661,-0.279531 0.00401181,-0.0415157 0.00609449,-0.0835787 0.00609449,-0.126102l0 -0.0467913c0.180917,0.075937 0.336291,0.201969 0.448567,0.360551 0.119949,0.169437 0.19061,0.375571 0.19061,0.597016l0 0.796531c0,0.0441811 -0.0358189,0.08 -0.08,0.08 -1.37728,0 -2.75455,0 -4.13183,0 -0.0441811,0 -0.08,-0.0358189 -0.08,-0.08l0 -0.796531c0,-0.221449 0.0706654,-0.427583 0.190614,-0.597016 0.112264,-0.158579 0.26765,-0.284598 0.448571,-0.360539l0 0.0467795c0,0.0425236 0.00207874,0.0845866 0.00609449,0.126102z" style="fill: #1A1A1A; fill-rule: nonzero;"/>
  <path class="fil0" d="M3.54123 2.43381c-0.0422835,0.0124252 -0.0664882,0.0567795 -0.054063,0.099063 0.0124252,0.0422835 0.0567795,0.0664882 0.099063,0.054063 0.000440945,-0.000129921 0.151768,-0.0467323 0.328531,0.000625984 0.0426299,0.0113898 0.0864252,-0.0139331 0.097815,-0.056563 0.0113898,-0.0426299 -0.0139331,-0.0864252 -0.056563,-0.097815 -0.220618,-0.0591102 -0.414224,0.00046063 -0.414783,0.000625984z" style="fill: #1A1A1A; fill-rule: nonzero;"/>
  <path class="fil0" d="M2.74113 2.43381c-0.0422835,0.0124252 -0.0664882,0.0567795 -0.054063,0.099063 0.0124252,0.0422835 0.0567795,0.0664882 0.099063,0.054063 0.000440945,-0.000129921 0.151772,-0.0467323 0.328531,0.000625984 0.0426299,0.0113898 0.0864252,-0.0139331 0.097815,-0.056563 0.0113898,-0.0426299 -0.0139331,-0.0864252 -0.056563,-0.097815 -0.220618,-0.0591102 -0.414224,0.00046063 -0.414783,0.000625984z" style="fill: #1A1A1A; fill-rule: nonzero;"/>
  <path class="fil0" d="M3.25 3.08559c-0.0422835,-0.0124252 -0.0866378,0.0117795 -0.099063,0.054063 -0.0124252,0.0422835 0.0117795,0.0866378 0.054063,0.099063 0.000559055,0.000165354 0.194165,0.0597362 0.414783,0.000625984 0.0426299,-0.0113898 0.0679528,-0.055185 0.056563,-0.097815 -0.0113898,-0.0426299 -0.055185,-0.0679528 -0.097815,-0.056563 -0.176764,0.0473583 -0.328091,0.000755906 -0.328531,0.000625984z" style="fill: #1A1A1A; fill-rule: nonzero;"/>
  <path class="fil1" d="M2.61034 1.99114l1.60598 0c-0.0371417,-0.0621732 -0.0802362,-0.119748 -0.128413,-0.17178 -0.172752,-0.186571 -0.411268,-0.30198 -0.674579,-0.30198 -0.263311,0 -0.501827,0.115409 -0.674579,0.30198 -0.0481772,0.0520315 -0.0912717,0.109606 -0.128413,0.17178z" style="fill: #B7B7B7;"/>
  <path class="fil1" d="M2.62188 1.71124c0.202429,-0.218626 0.482248,-0.353854 0.791453,-0.353854 0.309205,0 0.589024,0.135228 0.791453,0.353854 0.0864134,0.0933268 0.15865,0.201835 0.212917,0.321429 0.00111417,0.0020315 0.00214567,0.00411417 0.00308661,0.00624803 0.0511732,0.0990906 0.8195,1.69043 -2.06253,2.90809 0.0148031,0.0166024 0.0300787,0.0327795 0.0458031,0.0485039 0.467693,0.467705 1.55084,0.467705 2.01853,0 0.208224,-0.20822 0.337469,-0.495362 0.337469,-0.811146l0 -2.02074c0,-0.315783 -0.129244,-0.602929 -0.337469,-0.81115 -0.467705,-0.467705 -1.55082,-0.467701 -2.01853,0 -0.20822,0.20822 -0.337465,0.495366 -0.337465,0.81115l0 2.02074c0,0.232862 0.0702795,0.450146 0.190681,0.631697 1.03578,-0.431307 1.58624,-0.905295 1.86704,-1.3345 -0.193252,0.171803 -0.440909,0.274972 -0.710988,0.274972 -0.309205,0 -0.589024,-0.135228 -0.791453,-0.353854 -0.200913,-0.216988 -0.325189,-0.516043 -0.325189,-0.84572 0,-0.183169 0.0383622,-0.356886 0.106921,-0.512327 0.00146457,-0.0041811 0.00327165,-0.00820079 0.00538189,-0.0120315 0.0542638,-0.119571 0.126488,-0.228055 0.212886,-0.321362z" style="fill: #B7B7B7;"/>
  <path class="fil2" d="M4.53572 5.10863c-0.530102,0.53011 -1.71468,0.53011 -2.24478,0 -0.209126,-0.209126 -0.348303,-0.488272 -0.378244,-0.798169 -0.129799,0.0653622 -0.241374,0.161878 -0.324665,0.279531 -0.101071,0.142768 -0.160614,0.317134 -0.160614,0.505142l0 0.716531 3.97183 0 0 -0.716531c0,-0.188004 -0.0595394,-0.362374 -0.16061,-0.505142 -0.0832913,-0.117654 -0.194866,-0.214169 -0.324634,-0.279528 -0.0299685,0.309894 -0.169142,0.589035 -0.378276,0.798165z" style="fill: #CE93D8;"/>
  <path class="fil3" d="M3.25 3.08559c0.000440945,0.000129921 0.151768,0.0467323 0.328531,-0.000625984 0.0426299,-0.0113898 0.0864252,0.0139331 0.097815,0.056563 0.0113898,0.0426299 -0.0139331,0.0864252 -0.056563,0.097815 -0.220618,0.0591102 -0.414224,-0.00046063 -0.414783,-0.000625984 -0.0422835,-0.0124252 -0.0664882,-0.0567795 -0.054063,-0.099063 0.0124252,-0.0422835 0.0567795,-0.0664882 0.099063,-0.054063zm0.163331 0.510937c0.263311,0 0.501827,-0.115409 0.674579,-0.30198 0.174268,-0.188213 0.282063,-0.448953 0.282063,-0.737594 0,-0.144075 -0.0268583,-0.281193 -0.0754291,-0.405815l-1.76243 0c-0.0485748,0.124622 -0.0754291,0.261744 -0.0754291,0.405815 0,0.288642 0.107795,0.549382 0.282063,0.737594 0.172752,0.186571 0.411268,0.30198 0.674579,0.30198zm-0.298669 -1.00897c-0.17676,-0.0473583 -0.328091,-0.000755906 -0.328531,-0.000625984 -0.0422835,0.0124252 -0.0866378,-0.0117795 -0.099063,-0.054063 -0.0124252,-0.0422835 0.0117795,-0.0866378 0.054063,-0.099063 0.000559055,-0.000165354 0.194165,-0.0597362 0.414783,-0.000625984 0.0426299,0.0113898 0.0679528,0.055185 0.056563,0.097815 -0.0113898,0.0426299 -0.055185,0.0679528 -0.097815,0.056563zm0.471563 -0.000625984c-0.0422835,0.0124252 -0.0866378,-0.0117795 -0.099063,-0.054063 -0.0124252,-0.0422835 0.0117795,-0.0866378 0.054063,-0.099063 0.000559055,-0.000165354 0.194165,-0.0597362 0.414783,-0.000625984 0.0426299,0.0113898 0.0679528,0.055185 0.056563,0.097815 -0.0113898,0.0426299 -0.055185,0.0679528 -0.097815,0.056563 -0.176764,-0.0473583 -0.328091,-0.000755906 -0.328531,-0.000625984z" style="fill: #F5CEB8;"/>
 </g>
 <rect class="fil4" width="6.82666" height="6.82666" style="fill: none;"/>

	<metadata>
		<rdf:RDF xmlns:rdf="http://www.w3.org/1999/02/22-rdf-syntax-ns#" xmlns:rdfs="http://www.w3.org/2000/01/rdf-schema#" xmlns:dc="http://purl.org/dc/elements/1.1/">
			<rdf:Description about="https://iconscout.com/legal#licenses" dc:title="Free0001 - Arab Woman" dc:description="Free0001 - Arab Woman" dc:publisher="Iconscout" dc:date="2017-05-08" dc:format="image/svg+xml" dc:language="en">
				<dc:creator>
					<rdf:Bag>
						<rdf:li>Ex Eyecon</rdf:li>
					</rdf:Bag>
				</dc:creator>
			</rdf:Description>
		</rdf:RDF>
    </metadata></svg>
