<svg xmlns="http://www.w3.org/2000/svg" id="Layer_1" enable-background="new 0 0 1000 1000" viewBox="0 0 1000 1000"><linearGradient id="SVGID_1_" x1="487.991" x2="511.031" y1="-16.359" y2="614.361" gradientUnits="userSpaceOnUse"><stop offset="0" stop-color="#bf0040"/><stop offset=".871" stop-color="#ff0e6e"/></linearGradient><path fill="url(#SVGID_1_)" d="M579.56,798.75H428.44C346.25,798.75,279,731.5,279,649.31V194.44C279,112.25,346.25,45,428.44,45h151.12
	C661.75,45,729,112.25,729,194.44v454.87C729,731.5,661.75,798.75,579.56,798.75z"/><linearGradient id="XMLID_21_" x1="490.422" x2="507.072" y1="563.866" y2="1129.969" gradientUnits="userSpaceOnUse"><stop offset=".032" stop-color="#faaf87"/><stop offset=".82" stop-color="#ffd9a9"/></linearGradient><path id="XMLID_37_" fill="url(#XMLID_21_)" d="M837.87,721.69c-32.58-32.2-187.63-11.77-239.61-70.46c-10.45-11.81-20.66-52.67-28.74-94.17
				c-0.24-1.24-1.43-2.15-2.82-2.15h-64h-5.91H432.8c-1.39,0-2.58,0.91-2.82,2.15c-8.09,41.5-18.29,82.35-28.74,94.17
				c-51.97,58.69-207.05,38.26-239.61,70.46c-13.4,13.29-16.98,43.5-17.13,71.09c0,0,1.28,268.71,2.87,268.71
				c0,0,707.64-1.16,707.64-2.6V792.77C854.86,765.19,851.28,734.98,837.87,721.69z"/><g id="XMLID_16_"><linearGradient id="XMLID_30_" x1="453.494" x2="549.982" y1="163.094" y2="560.011" gradientUnits="userSpaceOnUse"><stop offset=".032" stop-color="#faaf87"/><stop offset="1" stop-color="#ffd9a9"/></linearGradient><path id="XMLID_69_" fill="url(#XMLID_30_)" d="M321.6,260.76c24.63-107.5,102.01-150.53,174.49-151.73v-0.08
						c0.59,0.01,1.22,0.06,1.81,0.06c0.63,0,1.19-0.05,1.81-0.05v0.07c72.47,1.4,149.71,44.62,174.06,152.18
						c35.08,155.02-25.81,252.05-95.04,310.73c-27.97,23.76-54.5,34.36-79.69,34.34v0.09c-0.63,0.02-1.2-0.08-1.81-0.08
						c-0.6,0-1.24,0.1-1.82,0.08v-0.09c-25.23-0.07-51.72-10.73-79.61-34.55C346.72,512.88,286.12,415.68,321.6,260.76z"/><linearGradient id="XMLID_31_" x1="497.735" x2="499.401" y1="488.502" y2="516.509" gradientUnits="userSpaceOnUse"><stop offset="0" stop-color="#bf0040"/><stop offset=".871" stop-color="#ff0e6e"/></linearGradient><path id="XMLID_68_" fill="url(#XMLID_31_)" d="M509.86,481.24c-4.43,0-9.57,5.73-11.58,5.73c-2.02,0-7.15-5.73-11.58-5.73
						c-9.93,0-42.95,16.38-42.95,16.38s7.61,5.55,14.03,8.06c15.54,6.07,27.61,11.57,40.5,11.57c12.89,0,24.96-5.49,40.5-11.57
						c6.42-2.51,14.03-8.06,14.03-8.06S519.79,481.24,509.86,481.24z"/></g><linearGradient id="SVGID_2_" x1="486.935" x2="509.975" y1="-16.321" y2="614.399" gradientUnits="userSpaceOnUse"><stop offset="0" stop-color="#bf0040"/><stop offset=".871" stop-color="#ff0e6e"/></linearGradient><path fill="url(#SVGID_2_)" d="M310.16,287.24h125.6c0,0-5.98-55.13,20.94-126.5l3,126.5H684c0,0,18-184.86-112.15-220.58
	c-104.69-25.94-203.36,1.63-248.23,94.08C305.52,198.05,310.16,287.24,310.16,287.24z"/><linearGradient id="SVGID_3_" x1="487.871" x2="500.831" y1="699.711" y2="1025.871" gradientUnits="userSpaceOnUse"><stop offset="0" stop-color="#f76415"/><stop offset="1" stop-color="#fd9714"/></linearGradient><path fill="url(#SVGID_3_)" d="M852.98,759.38c20.02-171-580.93,20.13-699.98,54c-34.32,9.76-19.22,61.43-18.55,97.1
	c1.77,93.49,12.6,209.9,12.6,209.9l705.92,17C852.98,1137.38,857.53,851.79,852.98,759.38z"/><linearGradient id="SVGID_4_" x1="240.381" x2="253.341" y1="571.219" y2="897.379" gradientUnits="userSpaceOnUse"><stop offset="0" stop-color="#f76415"/><stop offset="1" stop-color="#fd9714"/></linearGradient><rect width="27" height="108" x="234" y="696.38" fill="url(#SVGID_4_)"/></svg>