<svg xmlns="http://www.w3.org/2000/svg" viewBox="0 0 512 512"><path fill="#eb304a" d="M448,364.08V504.5H64V364.08a96.91,96.91,0,0,1,2.61-22.25,96,96,0,0,1,64.76-69.38L256,233.5l124.63,38.95A96,96,0,0,1,448,364.08Z"/><path fill="#fddd5a" d="M286,282.38V504.5H226V357.67a57.12,57.12,0,0,0,30-50.29v-25Z"/><rect width="15" height="222.12" x="271" y="282.38" fill="#f8be32"/><path fill="#e4222e" d="M380.63,272.45,256,233.5l-7.5,2.34,117.13,36.61A95.76,95.76,0,0,1,412,304.14a96,96,0,0,0-31.35-16.69L268.8,252.5H256S268.14,348,286,357.67a56.89,56.89,0,0,0,27.12,6.83l98.12-7.45a20,20,0,0,1,21.52,19.86c.15,41.3.24,127.59.24,127.59h15V364.08A96,96,0,0,0,380.63,272.45Z"/><path fill="#f8be32" d="M286,282.38v75.29a57.12,57.12,0,0,1-30-50.29v-25Z"/><path fill="#fed030" d="M444.8,339.5l-131.68,10A57.12,57.12,0,0,1,256,292.38V237.5h12.8l111.83,34.95A96,96,0,0,1,444.8,339.5Z"/><path fill="#f8be32" d="M389.69,275.8a95.87,95.87,0,0,1,22.64,23.7,20,20,0,0,1-15.14,31l-103.47,7.86a57.11,57.11,0,0,1-18.12-2.95,56.91,56.91,0,0,0,37.52,14.07l131.68-10A96,96,0,0,0,389.69,275.8Z"/><path fill="#fed947" d="M256,282.38v25a57.12,57.12,0,0,1-30,50.29V282.38Z"/><path fill="#f8be32" d="M256,282.38v25a57.12,57.12,0,0,1-30,50.29V282.38Z"/><path fill="#e4222e" d="M256,252.5v29.88H226v75.29a56.83,56.83,0,0,1-27.12,6.83L64.64,353.05a93,93,0,0,1,2-11.22c9.54-30.06,36.57-45.57,64.76-54.38L243.2,252.5Z"/><path fill="#fed030" d="M256,237.5v54.88a57.12,57.12,0,0,1-57.12,57.12L67.2,339.5a96,96,0,0,1,64.17-67.05L243.2,237.5Z"/><path fill="#fbbf7d" d="M310.61 137.5h19.78a21 21 0 0 1 21 21h0a21 21 0 0 1-21 21H310.61v-42zM201.39 179.5H181.61a21 21 0 0 1-21-21h0a21 21 0 0 1 21-21h19.78v42z"/><path fill="#fdd8ae" d="M284.39,263.35,256,277.5l-28.39-14.15a63.63,63.63,0,0,1-35-51.25l-6.81-75.6H326.2l-6.81,75.6A63.63,63.63,0,0,1,284.39,263.35Z"/><path fill="#fbbf7d" d="M311.2,136.5l-6.81,75.6a63.63,63.63,0,0,1-35,51.25L248.5,273.76l7.5,3.74,28.39-14.15a63.63,63.63,0,0,0,35-51.25l6.81-75.6Z"/><path fill="#fed030" d="M326,136.5H186l-10-75a47.35,47.35,0,0,0,80-30,47.35,47.35,0,0,0,80,30Z"/><path fill="#f8be32" d="M317.53,72.49l-4.22,31.65a20,20,0,0,1-19.82,17.36H184l2,15H326l10-75A47.35,47.35,0,0,1,317.53,72.49Z"/><circle cx="256" cy="22.5" r="15" fill="#eb304a"/><circle cx="170" cy="47.5" r="15" fill="#eb304a"/><circle cx="342" cy="48.5" r="15" fill="#eb304a"/><path fill="#e4222e" d="M342 33.5a15.25 15.25 0 0 0-3.91.53 15 15 0 0 1 0 28.94 15.25 15.25 0 0 0 3.91.53 15 15 0 0 0 0-30zM256 7.5a15.25 15.25 0 0 0-3.91.53 15 15 0 0 1 0 28.94 15.25 15.25 0 0 0 3.91.53 15 15 0 0 0 0-30zM170 32.5a15.25 15.25 0 0 0-3.91.53 15 15 0 0 1 0 28.94 15.25 15.25 0 0 0 3.91.53 15 15 0 0 0 0-30z"/><path fill="#57565c" d="M321.22,191.77l-17.76,10.14a15,15,0,0,1-14.92-.11l-13.07-7.63a15.08,15.08,0,0,0-7.56-2h-24a14.94,14.94,0,0,0-7.6,2.07l-12.92,7.59a15,15,0,0,1-14.88.17l-17.69-9.8,1.79,19.9a63.63,63.63,0,0,0,35,51.25L256,277.5l28.39-14.15a63.63,63.63,0,0,0,35-51.25l1.83-20.33"/><polygon fill="#787681" points="321.22 191.77 321.22 191.77 321.22 191.77 321.22 191.77"/><path fill="#3c3b41" d="M305.41,200.8l-1,11.3a63.63,63.63,0,0,1-35,51.25L248.5,273.76l7.5,3.74,28.39-14.15a63.63,63.63,0,0,0,35-51.25l1.83-20.33Z"/><circle cx="255.83" cy="315.5" r="18.03" fill="#1cabe1" transform="rotate(-80.78 255.842 315.506)"/><path fill="#199ad5" d="M255.83,297.47a18.32,18.32,0,0,0-3.66.37,18,18,0,0,1,0,35.32,18.32,18.32,0,0,0,3.66.37,18,18,0,1,0,0-36.06Z"/><path fill="#e4222e" d="M383.5 433.5v71h-15v-71a7.5 7.5 0 0 1 15 0zM143.5 433.5v71h-15v-71a7.5 7.5 0 0 1 15 0z"/><path d="M256,394.83a7.5,7.5,0,1,0,7.5,7.5A7.5,7.5,0,0,0,256,394.83Zm179.39-92.06a102.89,102.89,0,0,0-52.52-37.48l-66.82-20.88a71,71,0,0,0,10.81-31.64l2.33-25.87a7.88,7.88,0,0,0,1.2.1,28.5,28.5,0,0,0,4-56.71L342.3,71a22.52,22.52,0,1,0-18.62-9.45,39.85,39.85,0,0,1-57.4-19,22.5,22.5,0,1,0-20.58,0A40.08,40.08,0,0,1,237.55,55a39.64,39.64,0,0,1-49.25,6.55A22.49,22.49,0,1,0,169.7,71l7.91,59.3a28.5,28.5,0,0,0,4,56.71,7.88,7.88,0,0,0,1.2-.1l2.33,25.87A71,71,0,0,0,196,244.41l-66.82,20.88A103.49,103.49,0,0,0,56.5,364.08V504.5A7.5,7.5,0,0,0,64,512H448a7.5,7.5,0,0,0,7.5-7.5V364.08A102.88,102.88,0,0,0,435.39,302.77ZM342,41a7.5,7.5,0,1,1-7.5,7.5A7.5,7.5,0,0,1,342,41Zm-9.06,104.25A13.49,13.49,0,0,1,330.53,172ZM170,56a7.5,7.5,0,1,1,7.5-7.5A7.5,7.5,0,0,1,170,56Zm-1.89,102.5a13.52,13.52,0,0,1,10.95-13.25L181.47,172A13.51,13.51,0,0,1,168.11,158.5ZM256,15a7.5,7.5,0,1,1-7.5,7.5A7.5,7.5,0,0,1,256,15ZM185.65,77.1a54.66,54.66,0,0,0,23.15,5.13l1.88,0a54.6,54.6,0,0,0,37.68-16.79,55.56,55.56,0,0,0,7.6-10,54.52,54.52,0,0,0,47.09,26.84q2.43,0,4.89-.21a54.75,54.75,0,0,0,18.42-4.93L319.43,129H192.57ZM194,144H318l-3.9,43.3-14.31,8.08a7.52,7.52,0,0,1-7.46-.06l-13.12-7.65a22.79,22.79,0,0,0-11.29-3h-24a22.52,22.52,0,0,0-11.39,3.1l-12.91,7.59a7.55,7.55,0,0,1-7.46.08l-14.21-7.87Zm62,125.12L231,256.64a56.5,56.5,0,0,1-30.87-45.21l-.52-5.82,5.3,2.94a22.58,22.58,0,0,0,22.33-.25l12.93-7.6a7.48,7.48,0,0,1,3.78-1h24a7.84,7.84,0,0,1,3.75,1l13.07,7.63a22.57,22.57,0,0,0,22.38.16l5.32-3-.54,6a56.5,56.5,0,0,1-30.87,45.21h0Zm10.36,46.38A10.53,10.53,0,1,1,255.83,305,10.54,10.54,0,0,1,266.36,315.5ZM218.5,497h-75V433.5a7.5,7.5,0,0,0-15,0V497h-57V364.08a89.41,89.41,0,0,1,1.56-16.61L198.31,357l.57,0a64.48,64.48,0,0,0,19.62-3.07Zm2.56-160.25A49.65,49.65,0,0,1,199.15,342l-122-9.26a88.1,88.1,0,0,1,56.44-53.13L206,257a70.6,70.6,0,0,0,18.22,13.09l24.24,12.08v8.91a25.51,25.51,0,0,0-15,36.85,49.7,49.7,0,0,1-9.55,7.27A7.38,7.38,0,0,0,221.06,336.75ZM278.5,497h-45V346.92a64.47,64.47,0,0,0,10.85-8.63,25.43,25.43,0,0,0,23.18-.11,65.22,65.22,0,0,0,11,8.78ZM288,335.15a49.45,49.45,0,0,1-9.7-7.46,25.53,25.53,0,0,0-14.76-36.54v-9l24.24-12.08h0A70.48,70.48,0,0,0,306,257l72.43,22.64a88.1,88.1,0,0,1,56.44,53.13l-122,9.26A49.52,49.52,0,0,1,291,336.81,7.51,7.51,0,0,0,288,335.15ZM440.5,497h-57V433.5a7.5,7.5,0,0,0-15,0V497h-75V354A64.7,64.7,0,0,0,313.12,357l.57,0,125.25-9.51a89.41,89.41,0,0,1,1.56,16.61ZM256,363.83a7.5,7.5,0,1,0,7.5,7.5A7.5,7.5,0,0,0,256,363.83Zm0,93a7.5,7.5,0,1,0,7.5,7.5A7.5,7.5,0,0,0,256,456.83Zm5.2-242.47a16.84,16.84,0,0,1-5.13.82,16.51,16.51,0,0,1-5.25-.81,7.5,7.5,0,0,0-4.64,14.26,31.58,31.58,0,0,0,9.77,1.55h.21a31.87,31.87,0,0,0,9.64-1.54,7.5,7.5,0,1,0-4.6-14.28Zm25.3-46.53a7.5,7.5,0,1,0-7.5-7.5A7.5,7.5,0,0,0,286.5,167.83Zm-61,0a7.5,7.5,0,1,0-7.5-7.5A7.5,7.5,0,0,0,225.5,167.83Zm30.5,258a7.5,7.5,0,1,0,7.5,7.5A7.5,7.5,0,0,0,256,425.83Z"/></svg>