<svg xmlns="http://www.w3.org/2000/svg" id="Layer_1" enable-background="new 0 0 1000 1000" viewBox="0 0 1000 1000"><linearGradient id="SVGID_1_" x1="509.682" x2="505.362" y1="600.472" y2="1036.793" gradientUnits="userSpaceOnUse"><stop offset="0" stop-color="#fca768"/><stop offset="1" stop-color="#ffd9a9"/></linearGradient><path fill="url(#SVGID_1_)" d="M909.1,1084.77c1.1-32.04,2.21-97.6-1.12-202.93c-5.03-158.07-35.54-203.68-78.94-244.91
	c-40.47-38.47-185.26-64.09-218.58-83.33c0,0-8.91,71.66-106.06,69.43c-97.15,2.23-106.05-69.43-106.05-69.43
	c-33.32,19.24-178.11,44.86-218.58,83.33c-43.39,41.23-71.47,86.84-76.49,244.91c-3.33,105.33-2.22,170.89-1.11,202.93H909.1z"/><linearGradient id="SVGID_2_" x1="510.003" x2="510.003" y1="692.752" y2="402.24" gradientUnits="userSpaceOnUse"><stop offset="0" stop-color="#fca768"/><stop offset="1" stop-color="#ffd9a9"/></linearGradient><rect width="215.65" height="203.44" x="402.18" y="503.09" fill="url(#SVGID_2_)"/><linearGradient id="SVGID_3_" x1="501.04" x2="518.514" y1="111.387" y2="644.356" gradientUnits="userSpaceOnUse"><stop offset="0" stop-color="#fca768"/><stop offset="1" stop-color="#ffd9a9"/></linearGradient><path fill="url(#SVGID_3_)" d="M671.41,206.17C666.78,102.99,544.35,88.55,512.95,86.57c-4.63-0.3-7.3-0.33-7.3-0.33h-0.17
		c0,0-160.43,1.52-165.72,119.92c-2.37,52.66-0.07,104.7,4.1,148.46c3.03,32.85,7.16,61,11.1,81.13c2.53,13.12,5,22.84,7.03,28.24
		c3.43,9.26,10.26,20.6,18.83,32.23c17.56,23.99,42.39,49.23,59.98,59.71c14.2,8.44,48.15,14.86,64.68,14.01h0.17
		c2.16,0.1,4.63,0.1,7.3-0.03c17.76-0.82,45.05-6.63,57.38-13.98c17.56-10.48,42.38-35.72,59.98-59.71
		c8.56-11.63,15.36-22.97,18.83-32.23c2.03-5.4,4.5-15.13,7.03-28.24c3.9-20.14,8.03-48.28,11.13-81.13
		C671.44,310.9,673.78,258.83,671.41,206.17z"/><linearGradient id="SVGID_4_" x1="512.76" x2="502.566" y1="1116.56" y2="673.876" gradientUnits="userSpaceOnUse"><stop offset="0" stop-color="#d0d9d4"/><stop offset="1" stop-color="#a0d0df"/></linearGradient><path fill="url(#SVGID_4_)" d="M918.19,1084.52c1.11-32.4,2.23-98.7-1.13-205.21c-5.09-159.85-35.94-205.97-79.83-247.67
			c-40.92-38.9-187.35-64.81-221.04-84.27c0,0,92.57,159.17-116.76,150.07c-182.02,0-97.74-150.07-97.74-150.07
			c-33.69,19.45-180.12,45.36-221.04,84.27c-43.88,41.7-72.27,87.82-77.35,247.67c-3.37,106.51-2.25,172.81-1.13,205.21H918.19z"/><linearGradient id="SVGID_5_" x1="205.466" x2="602.936" y1="205.977" y2="205.977" gradientTransform="matrix(-1 0 0 1 941.53 0)" gradientUnits="userSpaceOnUse"><stop offset="0"/><stop offset="1" stop-color="#111"/></linearGradient><path fill="url(#SVGID_5_)" d="M374.15,124.11c19.74-11.69,52.99-44.72,78.64-42.35c8,0.74,19.37,3.83,21.87,8.6l2.4,0.66
			c8.81-22.63,26.9-30.72,55.39-30.66c25.96,0.06,54.49,7.63,76.54,21.38c21.99,13.69,34.05,36.37,62.48,38.95
			c19.59,1.77,28.65-6,40.74-19.77c-5.84,14.92-8.5,26.03-24.56,35.23c18.06-0.23,33.55-0.57,47.55-11.34
			c6.84,31.72-29.18,44.98-64.67,48.35c35.93,38.09,9.41,135.96-5.71,178.46c-2.22-34.49,3.24-82.07,0.12-116.16
			c-2.25-24.49-7.56-47.52-28.12-61.95c-7.97-0.57-14.93-1.66-20.03-3.09c-24.15-6.69-47.05-11.49-71.86-15.77
			c-20.24-3.52-56.11-5.8-68.73-24.26l-0.69,0.34c1.62,2.64,3.77,5.1,6.53,7.42c2.8,2.36,2.13,6.83-1.28,8.18v0
			c-23.28,7.8-40.65,0.14-61.93,16.94c-19.18,15.14-31.24,33.29-39.11,55.69c-6.75,19.26-8,40.75-12.53,60.32
			c-2.87,12.34-21.07,54.27-22.51,54.12C337.27,312.08,328.1,151.37,374.15,124.11z"/><path fill="#191516" d="M517.81 744.32c-2.46 10.42-16 10.42-18.46-.01-.2-.87-.2-1.78 0-2.65 2.46-10.42 16-10.42 18.46.01C518.01 742.54 518.01 743.45 517.81 744.32zM517.81 818.41c-2.46 10.42-16 10.42-18.46-.01-.2-.87-.2-1.78 0-2.65 2.46-10.42 16-10.42 18.46.01C518.01 816.63 518.01 817.54 517.81 818.41zM517.81 892.5c-2.46 10.42-16 10.42-18.46-.01-.2-.87-.2-1.78 0-2.65 2.46-10.42 16-10.42 18.46.01C518.01 890.72 518.01 891.63 517.81 892.5zM517.81 966.58c-2.46 10.42-16 10.42-18.46-.01-.2-.87-.2-1.78 0-2.65 2.46-10.42 16-10.42 18.46.01C518.01 964.8 518.01 965.72 517.81 966.58z"/><linearGradient id="SVGID_6_" x1="342" x2="657" y1="476.773" y2="476.773" gradientUnits="userSpaceOnUse"><stop offset="0"/><stop offset="1" stop-color="#111"/></linearGradient><path fill="url(#SVGID_6_)" d="M500.97,496.74h-2.94c0,0.25-13.83,1.95-16.8,2.54c-5.94,1.17-10.57,1.65-15.95,4.21
	c-10.45,5-17.95,10.79-16.45,22.01c1.23,9.21,9.09,19.29,18.6,23.73c7.92,3.71,24.36,1.63,18.1-8.02
	c-3.35-5.13-11.51-5.81-14.27-11.24c6.59-2.11,19.42-4.29,26.63-3.63h3.23c7.21-0.66,20.04,1.52,26.64,3.63
	c-2.77,5.43-10.92,6.12-14.28,11.24c-6.27,9.65,10.18,11.73,18.1,8.02c9.5-4.44,17.36-14.52,18.6-23.73
	c1.5-11.22-6.01-17.01-16.45-22.01c-5.39-2.56-10-3.05-15.95-4.21C514.8,498.7,500.97,496.99,500.97,496.74z M650.64,378l6.36,0.33
	c-0.82,11.73-1.15,23.58-2.68,34.98c-3.15,23.73-5.47,49.88-15.18,72.49c-10.27,23.91-51.18,64.67-76.51,77.82
	c-13.77,7.16-45.47,12.59-61.51,11.85h-3.23c-16.07,0.74-47.73-4.7-61.51-11.85c-25.33-13.15-66.24-53.91-76.51-77.82
	c-9.71-22.62-12.04-48.76-15.21-72.49c-1.53-11.4-1.83-23.25-2.65-34.98l6.36-0.33c0.41,6.37,1.42,12.97,2.98,19.98
	c2.26,10.08,8.21,14.59,14.86,22.79c11.83,14.62,15.86,31.68,28.25,46.02c13.57,15.69,27.75,32.41,50.21,39.11
	c6.53-8.63,13.45-14.29,24.57-18.71c9.8-3.91,19.04-1.42,28.66-4.01h3.23c9.63,2.59,18.84,0.1,28.66,4.01
	c11.13,4.42,18.04,10.08,24.58,18.71c22.45-6.7,36.63-23.43,50.2-39.11c12.39-14.34,16.39-31.4,28.25-46.02
	c6.65-8.2,12.6-12.72,14.87-22.79C649.23,390.97,650.23,384.37,650.64,378z"/></svg>