<svg xmlns="http://www.w3.org/2000/svg" id="Layer_1" enable-background="new 0 0 1000 1000" viewBox="0 0 1000 1000"><linearGradient id="SVGID_1_" x1="519.682" x2="515.362" y1="595.112" y2="1031.432" gradientUnits="userSpaceOnUse"><stop offset="0" stop-color="#fca768"/><stop offset="1" stop-color="#ffd9a9"/></linearGradient><path fill="url(#SVGID_1_)" d="M919.1,1079.41c1.1-32.04,2.21-97.6-1.12-202.93c-5.03-158.07-35.54-203.68-78.94-244.91
	c-40.47-38.47-185.26-64.09-218.58-83.33c0,0-8.91,71.66-106.06,69.43c-97.15,2.23-106.05-69.43-106.05-69.43
	c-33.32,19.24-178.11,44.86-218.58,83.33c-43.39,41.23-71.47,86.84-76.49,244.91c-3.33,105.33-2.22,170.89-1.11,202.93H919.1z"/><linearGradient id="SVGID_2_" x1="515.454" x2="515.454" y1="692" y2="404.72" gradientUnits="userSpaceOnUse"><stop offset="0" stop-color="#fca768"/><stop offset="1" stop-color="#ffd9a9"/></linearGradient><rect width="213.26" height="201.17" x="408.83" y="504.45" fill="url(#SVGID_2_)"/><linearGradient id="SVGID_3_" x1="520.423" x2="537.703" y1="113.462" y2="640.502" gradientUnits="userSpaceOnUse"><stop offset="0" stop-color="#fca768"/><stop offset="1" stop-color="#ffd9a9"/></linearGradient><path fill="url(#SVGID_3_)" d="M688.89,207.19C684.32,105.16,563.25,90.88,532.2,88.92c-4.58-0.29-7.22-0.33-7.22-0.33h-0.16
		c0,0-158.65,1.5-163.88,118.59C358.6,259.26,360.87,310.72,365,354c3,32.49,7.08,60.32,10.97,80.23
		c2.5,12.97,4.94,22.58,6.95,27.93c3.39,9.16,10.15,20.37,18.62,31.87c17.37,23.72,41.92,48.69,59.32,59.05
		c14.04,8.34,47.62,14.7,63.97,13.85h0.16c2.14,0.1,4.58,0.1,7.22-0.03c17.56-0.82,44.55-6.55,56.75-13.82
		c17.37-10.36,41.91-35.33,59.32-59.05c8.47-11.5,15.19-22.71,18.62-31.87c2.01-5.34,4.45-14.96,6.95-27.93
		c3.86-19.91,7.94-47.74,11-80.23C688.93,310.75,691.24,259.26,688.89,207.19z"/><linearGradient id="SVGID_4_" x1="518.18" x2="508.1" y1="1111.094" y2="673.334" gradientUnits="userSpaceOnUse"><stop offset="0" stop-color="#0cffc4"/><stop offset=".871" stop-color="#000e6e"/></linearGradient><path fill="url(#SVGID_4_)" d="M919.1,1079.41c1.1-32.04,2.21-97.6-1.12-202.93c-5.03-158.07-35.54-203.68-78.94-244.91
			c-40.47-38.47-185.26-64.09-218.58-83.33c0,0,91.54,157.4-115.46,148.4c-180,0-96.65-148.4-96.65-148.4
			c-33.32,19.24-178.11,44.86-218.58,83.33c-43.39,41.23-71.47,86.84-76.49,244.91c-3.33,105.33-2.22,170.89-1.11,202.93H919.1z"/><linearGradient id="SVGID_5_" x1="107.438" x2="504" y1="778.5" y2="778.5" gradientUnits="userSpaceOnUse"><stop offset="0" stop-color="#0000cb"/><stop offset="1" stop-color="#000e6e"/></linearGradient><path fill="url(#SVGID_5_)" d="M153,666c48.34-80.57,231.77-121.05,231.77-121.05L414,540c0,0-36,27,27.97,236.79
	c22.19,72.76,53.05,172.9,62.03,240.21c-46.82,0-387,0-387,0C90,909,126,711,153,666z"/><linearGradient id="SVGID_6_" x1="558" x2="919.986" y1="783" y2="783" gradientUnits="userSpaceOnUse"><stop offset="0" stop-color="#0000cb"/><stop offset="1" stop-color="#000e6e"/></linearGradient><path fill="url(#SVGID_6_)" d="M881.03,666c-48.34-80.57-231.77-121.05-231.77-121.05L612,540c0,0,45,54-19.94,236.79
	C566.59,848.47,566.98,958.69,558,1026c46.82,0,351-9,351-9C936,909,908.03,711,881.03,666z"/><linearGradient id="SVGID_7_" x1="346.28" x2="705.397" y1="216.576" y2="216.576" gradientUnits="userSpaceOnUse"><stop offset="0"/><stop offset="1" stop-color="#111"/></linearGradient><path fill="url(#SVGID_7_)" d="M700.77,238.2c0.03,22.89,6.9,42.83,3.85,65.92c-2.65,19.87-8.88,40.39-11.53,59.32
	c-1.11,7.89-3,15.71-5.07,23.57l-5.1-0.58c-12.06-16.66-19.46-45.37-15.97-66.02c4.98-29.49,6.53-45.06-9.09-70.97
	c-14.39-23.9-32.84-39.68-57.97-42.56c-28.09-3.18-51.01,7.11-72.99,22.11h-2.13c-21.97-15-44.86-25.29-72.98-22.11
	c-25.14,2.88-43.58,18.66-57.98,42.56c-15.61,25.9-14.07,41.48-9.06,70.97c3.5,20.65-3.93,49.37-15.99,66.02l-5.1,0.58
	c-2.06-7.85-3.96-15.67-5.07-23.57c-2.65-18.93-8.89-39.44-11.51-59.32c-3.09-23.09,3.79-43.03,3.82-65.92
	c0-23.97,0.12-50.65,13.75-70.32c9.91-14.29,22.81-20.59,30.56-37.92c7.43-16.66,10.81-35.18,21.27-50.04
	c23.49-33.49,73.16-33.76,108.29-33.76h2.13c35.14,0,84.81,0.27,108.32,33.76c10.43,14.86,13.81,33.38,21.27,50.04
	c7.75,17.34,20.63,23.63,30.54,37.92C700.65,187.54,700.77,214.22,700.77,238.2z"/><g><path fill="#001270" d="M649.43,698.73c-6.3,7.72-9.57,19.48-11.11,26.3c-2.08,9.23-2.66,23.81-5.72,48.97c-21.16,0-42.28,0-62.78,0
		c1.26-3.6,2.53-7.19,3.84-10.82c0.04-0.04,0.04-0.04,0.04-0.08c11.97-19.11,23.85-31.45,37.99-41.3
		C623.81,713.39,636.8,706.28,649.43,698.73z"/><linearGradient id="SVGID_8_" x1="573.695" x2="675" y1="647.297" y2="647.297" gradientUnits="userSpaceOnUse"><stop offset="0" stop-color="#0cffc4"/><stop offset=".871" stop-color="#000e6e"/></linearGradient><path fill="url(#SVGID_8_)" d="M641.01,557.4c3.59,12.33,6.65,25.04,10.74,37.78c5.97,18.5,10.66,36.88,16.38,55.1
		c2.21,7.1,7.07,17.31,6.87,24.75c-0.29,9.88-7.8,12.58-16.59,18.18c-2.94,1.88-5.97,3.72-8.98,5.52
		c-12.63,7.55-25.62,14.66-37.74,23.07c-14.14,9.84-26.02,22.18-37.99,41.3c7.23-20.02,15.28-40.56,23.65-64.13
		c2.69-7.6,5.39-15.52,8.12-23.86c3.6-10.82,7.2-22.34,10.79-34.75c4.86-16.75,7.68-45.91,8.38-63.43c0.33-8.21-2.61-25.2-2.61-25.2
		s-8.96-8.27-15.74-11.37c10.66-14.75,25.91-9.7,30.97,5.04C638.6,549.36,639.86,553.36,641.01,557.4z"/></g><path fill="#001270" d="M456.08,779.91c-20.5,0-41.62,0-62.78,0c-3.1-25.16-3.68-39.74-5.72-48.97c-1.55-6.82-4.82-18.58-11.11-26.3
	c12.63,7.55,25.61,14.66,37.74,23.07c14.14,9.84,25.98,22.18,37.99,41.3c0,0.04,0.04,0.04,0.04,0.08
	C453.55,772.72,454.82,776.31,456.08,779.91z"/><linearGradient id="SVGID_9_" x1="350.901" x2="452.205" y1="653.824" y2="653.824" gradientUnits="userSpaceOnUse"><stop offset="0" stop-color="#0cffc4"/><stop offset=".871" stop-color="#000e6e"/></linearGradient><path fill="url(#SVGID_9_)" d="M376.47,704.64c-3.02-1.8-6.04-3.64-8.98-5.52c-8.78-5.6-16.3-8.29-16.59-18.18
	c-0.2-7.44,4.66-17.65,6.87-24.75c5.68-18.22,10.41-36.6,16.38-55.1c4.08-12.74,7.15-25.45,10.74-37.78
	c1.14-4.04,2.41-8.04,3.76-12.01c5.06-14.75,20.94-17.73,31.6-2.98c-5.35,4.68-17.3,12.7-17.3,12.7s-2,13.61-1.68,21.82
	c0.69,17.52,3.51,46.69,8.34,63.43c3.59,12.42,7.19,23.93,10.77,34.75c2.74,8.34,5.48,16.26,8.17,23.86
	c8.38,23.57,16.42,44.11,23.65,64.13c-12.01-19.11-23.85-31.45-37.99-41.3C402.08,719.3,389.1,712.19,376.47,704.64z"/></svg>