<svg xmlns="http://www.w3.org/2000/svg" xmlns:xlink="http://www.w3.org/1999/xlink" id="Layer_1" enable-background="new 0 0 1000 1000" viewBox="0 0 1000 1000"><linearGradient id="SVGID_1_" x1="509.682" x2="505.362" y1="600.472" y2="1036.793" gradientUnits="userSpaceOnUse"><stop offset="0" stop-color="#fca768"/><stop offset="1" stop-color="#ffd9a9"/></linearGradient><path fill="url(#SVGID_1_)" d="M909.1,1084.77c1.1-32.04,2.21-97.6-1.12-202.93c-5.03-158.07-35.54-203.68-78.94-244.91
	c-40.47-38.47-185.26-64.09-218.58-83.33c0,0-8.91,71.66-106.06,69.43c-97.15,2.23-106.05-69.43-106.05-69.43
	c-33.32,19.24-178.11,44.86-218.58,83.33c-43.39,41.23-71.47,86.84-76.49,244.91c-3.33,105.33-2.22,170.89-1.11,202.93H909.1z"/><linearGradient id="SVGID_2_" x1="505.454" x2="505.454" y1="697.36" y2="410.08" gradientUnits="userSpaceOnUse"><stop offset="0" stop-color="#fca768"/><stop offset="1" stop-color="#ffd9a9"/></linearGradient><rect width="213.26" height="201.17" x="398.83" y="509.81" fill="url(#SVGID_2_)"/><linearGradient id="SVGID_3_" x1="496.59" x2="513.87" y1="122.462" y2="649.502" gradientUnits="userSpaceOnUse"><stop offset="0" stop-color="#fca768"/><stop offset="1" stop-color="#ffd9a9"/></linearGradient><path fill="url(#SVGID_3_)" d="M665.06,216.19C660.48,114.16,539.41,99.88,508.37,97.92c-4.58-0.29-7.22-0.33-7.22-0.33h-0.16
		c0,0-158.65,1.5-163.88,118.59c-2.34,52.08-0.07,103.53,4.06,146.81c3,32.49,7.08,60.32,10.97,80.23
		c2.5,12.97,4.94,22.58,6.95,27.93c3.39,9.16,10.15,20.37,18.62,31.87c17.37,23.72,41.92,48.69,59.32,59.05
		c14.04,8.34,47.62,14.7,63.97,13.85h0.16c2.14,0.1,4.58,0.1,7.22-0.03c17.56-0.82,44.55-6.55,56.75-13.82
		c17.37-10.36,41.91-35.33,59.32-59.05c8.47-11.5,15.19-22.71,18.62-31.87c2.01-5.34,4.45-14.96,6.95-27.93
		c3.86-19.91,7.94-47.74,11-80.23C665.1,319.75,667.41,268.26,665.06,216.19z"/><linearGradient id="SVGID_4_" x1="508.18" x2="498.1" y1="1116.454" y2="678.694" gradientUnits="userSpaceOnUse"><stop offset="0"/><stop offset="1" stop-color="#111"/></linearGradient><path fill="url(#SVGID_4_)" d="M909.1,1084.77c1.1-32.04,2.21-97.6-1.12-202.93c-5.03-158.07-35.54-203.68-78.94-244.91
			c-40.47-38.47-185.26-64.09-218.58-83.33c0,0,91.54,157.4-115.46,148.4c-180,0-96.65-148.4-96.65-148.4
			c-33.32,19.24-178.11,44.86-218.58,83.33c-43.39,41.23-71.47,86.84-76.49,244.91c-3.33,105.33-2.22,170.89-1.11,202.93H909.1z"/><g><rect width="16.19" height="128.36" x="494.2" y="700.41" fill="#191516"/><rect width="8.45" height="3.62" x="495.55" y="705.24" fill="#e6f0eb"/><rect width="8.45" height="3.62" x="500.59" y="708.86" fill="#adaeae"/><rect width="8.45" height="3.62" x="495.55" y="712.48" fill="#e6f0eb"/><rect width="8.45" height="3.62" x="500.59" y="716.09" fill="#adaeae"/><rect width="8.45" height="3.62" x="495.55" y="719.72" fill="#e6f0eb"/><rect width="8.45" height="3.62" x="500.59" y="723.33" fill="#adaeae"/><rect width="8.45" height="3.62" x="495.55" y="726.96" fill="#e6f0eb"/><rect width="8.45" height="3.62" x="500.59" y="730.57" fill="#adaeae"/><rect width="8.45" height="3.62" x="495.55" y="734.19" fill="#e6f0eb"/><rect width="8.45" height="3.62" x="500.59" y="737.81" fill="#adaeae"/><rect width="8.45" height="3.62" x="495.55" y="741.43" fill="#e6f0eb"/><rect width="8.45" height="3.62" x="500.59" y="745.05" fill="#adaeae"/><rect width="8.45" height="3.62" x="495.55" y="748.67" fill="#e6f0eb"/><rect width="8.45" height="3.62" x="500.59" y="752.29" fill="#adaeae"/><rect width="8.45" height="3.62" x="495.55" y="755.91" fill="#e6f0eb"/><rect width="8.45" height="3.62" x="500.59" y="759.52" fill="#adaeae"/><rect width="8.45" height="3.62" x="495.55" y="763.15" fill="#e6f0eb"/><rect width="8.45" height="3.62" x="500.59" y="766.76" fill="#adaeae"/><rect width="8.45" height="3.62" x="495.55" y="770.38" fill="#e6f0eb"/><rect width="8.45" height="3.62" x="500.59" y="774" fill="#adaeae"/><rect width="8.45" height="3.62" x="495.55" y="777.62" fill="#e6f0eb"/><rect width="8.45" height="3.62" x="500.59" y="781.24" fill="#adaeae"/><rect width="8.45" height="3.62" x="495.55" y="784.86" fill="#e6f0eb"/><rect width="8.45" height="3.62" x="500.59" y="788.48" fill="#adaeae"/><rect width="8.45" height="3.62" x="495.55" y="792.1" fill="#e6f0eb"/><rect width="8.45" height="3.62" x="500.59" y="795.71" fill="#adaeae"/><rect width="8.45" height="3.62" x="495.55" y="799.34" fill="#e6f0eb"/><rect width="8.45" height="3.62" x="500.59" y="802.95" fill="#adaeae"/><rect width="8.45" height="3.62" x="495.55" y="806.57" fill="#e6f0eb"/><rect width="8.45" height="3.62" x="500.59" y="810.19" fill="#adaeae"/><rect width="8.45" height="3.62" x="495.55" y="813.81" fill="#e6f0eb"/><rect width="8.45" height="3.62" x="500.59" y="817.43" fill="#adaeae"/><rect width="8.45" height="3.62" x="495.55" y="821.05" fill="#e6f0eb"/><rect width="8.45" height="3.62" x="500.59" y="824.67" fill="#adaeae"/><g><defs><rect id="SVGID_78_" width="16.19" height="128.36" x="494.2" y="697.52"/></defs><clipPath id="SVGID_5_"><use overflow="visible" xlink:href="#SVGID_78_"/></clipPath><path fill="#adaeae" d="M495.07,730.59l-2.42-22.28c-0.12-1.07,0.74-1.95,1.92-1.95h15.7
				c1.19,0,2.02,0.87,1.87,1.94l-3.04,22.29c-0.14,1.07-1.22,1.94-2.4,1.94h-9.27C496.24,732.53,495.19,731.66,495.07,730.59z" clip-path="url(#SVGID_5_)"/><path fill="#e6f0eb" d="M507.42,709.61h-9.27c-1.18,0-2.22,0.87-2.31,1.95l-3.24,37.93c-0.09,1.08,0.79,1.95,1.97,1.95h15.7
			c1.19,0,2.08-0.88,2-1.95l-2.58-37.92C509.62,710.49,508.6,709.61,507.42,709.61z M496.99,727.97l0.86-14.45
			c0.06-1.08,1.08-1.95,2.26-1.95h5.28c1.18,0,2.17,0.88,2.19,1.96l0.35,14.45c0.02,1.08-0.91,1.95-2.1,1.95h-6.82
			C497.83,729.92,496.92,729.05,496.99,727.97z"/><path fill="#e6f0eb" d="M502.74,721.45h-0.65c-1.18,0-2.14-0.88-2.14-1.96v-14.34c0-1.08,0.96-1.96,2.14-1.96h0.65
			c1.18,0,2.14,0.88,2.14,1.96v14.34C504.89,720.57,503.93,721.45,502.74,721.45z"/></g></g><g><path fill="#9e5428" d="M385.85,196.34l-3.71,5.2c0,35.37-1.28,56.76-17.51,85.89c-12.5,22.39-30.79,52.91-26.18,81.04
		c-2.99-17.47-1.43-35.16-10.78-50.49c-10.57-17.25-14.15-29.06-12.13-52.41c2.25-25.85,2.15-57.19,14.37-80.08
		c5.95-11.19,15.83-17.43,20.35-27.49c2.55-5.74,0.63-17.04,4.27-24.92c23.99-51.7,104.8-49.87,148.96-52.09h0.18
		c0,0,164.88,1.78,170.34,142.61C676.69,291.89,661.95,350.35,657,405c-2.15-18.75-24.25-79.21-37.65-96.89
		c-17.76-23.46-50.76-34.65-75.72-43.06C488.09,246.33,429.23,236.52,385.85,196.34z"/></g></svg>