<svg xmlns="http://www.w3.org/2000/svg" width="64" height="64" enable-background="new 0 0 64 64" viewBox="0 0 64 64"><path fill="#2D2F64" d="M37.038,7.321c0,0.533-0.437,0.97-0.97,0.97c-0.543,0-0.97-0.437-0.97-0.97
		c0-0.582-1.212-1.435-3.103-1.435c-1.881,0-3.093,0.853-3.093,1.435c0,0.533-0.437,0.97-0.97,0.97c-0.534,0-0.97-0.437-0.97-0.97
		c0-1.891,2.211-3.375,5.033-3.375C34.827,3.947,37.038,5.43,37.038,7.321z"/><path fill="#2D2F64" d="M50.594,38.061c-2.026-0.776-4.121-1.571-6.322-2.182c-2.667-0.815-4.645-2.007-5.896-3.53
		c4.005-3.316,6.817-9.61,6.875-15.631c1.202-1.28,1.318-3.074,1.328-3.433c0.059-0.64,0.534-6.584-2.686-10.298
		c-1.59-1.823-3.782-2.783-6.506-2.871c-3.54-0.155-7.166-0.155-10.764,0c-2.734,0.087-4.926,1.047-6.517,2.871
		c-3.219,3.714-2.744,9.658-2.686,10.298c0.01,0.378,0.136,2.328,1.513,3.617c0.117,5.818,2.735,12.024,6.749,15.389
		c-1.26,1.542-3.258,2.754-5.954,3.578c-2.143,0.601-4.121,1.348-6.216,2.143l-0.107,0.048C7.53,40.32,4.291,45.11,4.291,51.53v11.5
		c0,0.533,0.437,0.97,0.97,0.97h34.948c0.009,0,0.009,0,0.009,0h18.521c0.533,0,0.97-0.437,0.97-0.97v-11.5
		C59.709,45.11,56.47,40.33,50.594,38.061z M21.581,4.257c1.212-1.396,2.928-2.133,5.11-2.211c1.784-0.068,3.559-0.106,5.333-0.106
		c1.774,0,3.539,0.039,5.285,0.106c2.182,0.078,3.898,0.814,5.11,2.211c1.958,2.25,2.269,5.683,2.269,7.554
		c-8.427-3.297-16.95-3.297-25.377,0C19.312,9.939,19.622,6.507,21.581,4.257z M19.438,13.847c8.339-3.423,16.786-3.423,25.125,0
		c-0.107,0.572-0.378,1.396-1.077,1.852c-0.95,0.621-2.541,0.466-4.616-0.436c-0.039-0.02-0.087-0.039-0.136-0.049
		c-0.155-0.048-3.83-1.038-6.72-1.086h-0.029c-2.89,0.048-6.574,1.038-6.729,1.086c-0.039,0.01-0.087,0.029-0.126,0.049
		c-2.075,0.902-3.665,1.057-4.606,0.446C19.825,15.253,19.544,14.419,19.438,13.847z M20.921,17.91
		c1.338,0.262,2.977-0.01,4.916-0.843c0.495-0.126,3.714-0.96,6.158-0.999c2.443,0.039,5.673,0.873,6.167,0.999
		c1.464,0.63,2.763,0.95,3.888,0.95c0.427,0,0.834-0.058,1.212-0.146c-0.398,5.585-3.239,11.181-7.06,13.683
		c-1.329,0.873-2.715,1.318-4.111,1.318c-1.552,0-3.016-0.533-4.354-1.445c-0.059-0.068-0.117-0.146-0.194-0.194
		c-0.029-0.02-0.068-0.02-0.097-0.029C23.85,28.538,21.319,23.088,20.921,17.91z M27.263,33.416
		c1.483,0.883,3.103,1.396,4.829,1.396c1.609,0,3.18-0.475,4.684-1.357c0.621,0.776,1.377,1.464,2.259,2.084l-2.075,2.473h-9.998
		l-2.007-2.463C25.867,34.919,26.642,34.211,27.263,33.416z M34.293,62.061l-2.841-4.015c-0.213-0.3-0.572-0.456-0.941-0.397
		c-1.872,0.301-3.792-0.504-4.887-2.056c-0.834-1.173-1.105-2.628-0.795-3.985l1.794,2.541c0.146,0.213,0.378,0.359,0.63,0.397
		c0.252,0.049,0.514-0.01,0.727-0.165l4.044-2.851c0.436-0.31,0.533-0.921,0.232-1.358l-1.688-2.385
		c1.28,0.223,2.463,0.941,3.239,2.037c1.096,1.551,1.212,3.626,0.291,5.285c-0.174,0.33-0.155,0.727,0.058,1.028l4.18,5.925H34.293z
		 M57.77,62.061h-8.814V51.151c0-0.533-0.437-0.97-0.97-0.97c-0.543,0-0.97,0.437-0.97,0.97v10.909h-6.303l-4.635-6.575
		c0.96-2.201,0.708-4.8-0.688-6.778c-1.532-2.182-4.228-3.297-6.846-2.841c-0.33,0.058-0.611,0.281-0.737,0.591
		c-0.126,0.301-0.087,0.65,0.106,0.931l2.201,3.113l-2.463,1.736l-2.25-3.19c-0.194-0.262-0.495-0.446-0.825-0.408
		c-0.33,0.01-0.63,0.185-0.795,0.466c-1.445,2.366-1.338,5.353,0.262,7.612c1.396,1.978,3.763,3.083,6.158,2.918l1.716,2.424H16.984
		V51.151c0-0.533-0.436-0.97-0.969-0.97c-0.534,0-0.97,0.437-0.97,0.97v10.909H6.23V51.53c0-3.937,1.368-9.154,7.865-11.656
		l0.106-0.048c2.056-0.776,3.995-1.513,6.07-2.095c1.096-0.339,2.085-0.737,2.987-1.193l2.492,3.055
		c0.185,0.223,0.466,0.359,0.757,0.359h10.909c0.281,0,0.553-0.126,0.737-0.349l2.579-3.064c0.902,0.456,1.901,0.863,2.997,1.203
		c2.143,0.591,4.102,1.338,6.167,2.124c6.507,2.511,7.874,7.729,7.874,11.666V62.061z"/><path fill="#FFE5AB" d="M43.263,17.872c-0.398,5.585-3.239,11.181-7.06,13.683c-1.329,0.873-2.715,1.318-4.111,1.318
		c-1.552,0-3.016-0.533-4.354-1.445c-0.059-0.068-0.117-0.146-0.194-0.194c-0.029-0.02-0.068-0.02-0.097-0.029
		c-3.598-2.667-6.128-8.116-6.526-13.294c1.338,0.262,2.977-0.01,4.916-0.843c0.495-0.126,3.714-0.96,6.158-0.999
		c2.443,0.039,5.673,0.873,6.167,0.999c1.464,0.63,2.763,0.95,3.888,0.95C42.478,18.017,42.885,17.959,43.263,17.872z"/><path fill="#F3C88C" d="M39.035,35.539l-2.075,2.473h-9.998l-2.007-2.463c0.912-0.63,1.687-1.338,2.308-2.133
		c1.483,0.883,3.103,1.396,4.829,1.396c1.609,0,3.18-0.475,4.684-1.357C37.396,34.23,38.153,34.919,39.035,35.539z"/><path fill="#ECC35F" d="M42.419,4.257c-1.212-1.396-2.929-2.133-5.11-2.211c-1.746-0.068-3.51-0.106-5.285-0.106
		c-1.775,0-3.549,0.039-5.333,0.106c-2.182,0.078-3.898,0.814-5.11,2.211c-1.959,2.25-2.269,5.683-2.269,7.554
		c8.427-3.297,16.95-3.297,25.377,0C44.688,9.939,44.378,6.507,42.419,4.257z M36.068,8.291c-0.543,0-0.97-0.437-0.97-0.97
		c0-0.582-1.212-1.435-3.103-1.435c-1.881,0-3.093,0.853-3.093,1.435c0,0.533-0.437,0.97-0.97,0.97c-0.534,0-0.97-0.437-0.97-0.97
		c0-1.891,2.211-3.375,5.033-3.375c2.832,0,5.042,1.483,5.042,3.375C37.038,7.854,36.601,8.291,36.068,8.291z"/><path fill="#F3C88C" d="M43.265,17.87c-0.399,5.59-3.24,11.18-7.06,13.68c-1.33,0.879-2.72,1.32-4.11,1.32
		c-1.55,0-3.02-0.53-4.36-1.44c-0.05-0.07-0.11-0.15-0.19-0.2c-0.03-0.02-0.07-0.02-0.1-0.03c-3.6-2.66-6.13-8.11-6.52-13.291
		c0.73,0.141,1.56,0.13,2.48-0.06c0.32,4.22,2.28,8.66,5.06,10.83c0.02,0.01,0.05,0.01,0.08,0.03c0.06,0.04,0.1,0.1,0.15,0.15
		c1.04,0.75,2.17,1.18,3.38,1.18c1.08,0,2.16-0.36,3.189-1.07c2.94-2.03,5.14-6.55,5.47-11.08c0.46,0.09,0.9,0.13,1.32,0.13
		C42.475,18.02,42.885,17.96,43.265,17.87z"/><path fill="#E2B34A" d="M44.685,11.81c-0.83-0.32-1.65-0.62-2.48-0.86c-0.18-1.51-0.64-3.291-1.73-4.61
		c-0.98-1.2-2.38-1.83-4.15-1.9c-0.6-0.02-1.2-0.04-1.8-0.05c-0.74-0.28-1.6-0.44-2.53-0.44c-0.92,0-1.78,0.16-2.52,0.44
		c-0.6,0.01-1.2,0.03-1.8,0.05c-1.77,0.07-3.17,0.7-4.15,1.9c-1.09,1.32-1.55,3.1-1.74,4.61c-0.82,0.25-1.65,0.54-2.47,0.86
		c0-1.87,0.31-5.3,2.27-7.55c1.21-1.4,2.92-2.14,5.11-2.209c1.78-0.07,3.55-0.11,5.33-0.11c1.77,0,3.54,0.04,5.28,0.11
		c2.19,0.07,3.9,0.81,5.11,2.209C44.375,6.51,44.685,9.94,44.685,11.81z"/><path fill="#E2B34A" d="M44.563,13.847c-0.107,0.572-0.378,1.396-1.077,1.852c-0.95,0.621-2.541,0.466-4.616-0.436
		c-0.039-0.02-0.087-0.039-0.136-0.049c-0.155-0.048-3.83-1.038-6.72-1.086h-0.029c-2.89,0.048-6.574,1.038-6.729,1.086
		c-0.039,0.01-0.087,0.029-0.126,0.049c-2.075,0.902-3.665,1.057-4.606,0.446c-0.698-0.456-0.979-1.29-1.086-1.862
		C27.777,10.424,36.223,10.424,44.563,13.847z"/><path fill="#ECC35F" d="M57.77,51.53v10.531h-8.814V51.151c0-0.533-0.437-0.97-0.97-0.97c-0.543,0-0.97,0.437-0.97,0.97v10.909
		h-6.303l-4.635-6.575c0.96-2.201,0.708-4.8-0.688-6.778c-1.532-2.182-4.228-3.297-6.846-2.841c-0.33,0.058-0.611,0.281-0.737,0.591
		c-0.126,0.301-0.087,0.65,0.106,0.931l2.201,3.113l-2.463,1.736l-2.25-3.19c-0.194-0.262-0.495-0.446-0.825-0.408
		c-0.33,0.01-0.63,0.185-0.795,0.466c-1.445,2.366-1.338,5.353,0.262,7.612c1.396,1.978,3.763,3.083,6.158,2.918l1.716,2.424H16.984
		V51.151c0-0.533-0.436-0.97-0.969-0.97c-0.534,0-0.97,0.437-0.97,0.97v10.909H6.23V51.53c0-3.937,1.368-9.154,7.865-11.656
		l0.106-0.048c2.056-0.776,3.995-1.513,6.07-2.095c1.096-0.339,2.085-0.737,2.987-1.193l2.492,3.055
		c0.185,0.223,0.466,0.359,0.757,0.359h10.909c0.281,0,0.553-0.126,0.737-0.349l2.579-3.064c0.902,0.456,1.901,0.863,2.997,1.203
		c2.143,0.591,4.102,1.338,6.167,2.124C56.402,42.375,57.77,47.593,57.77,51.53z"/><path fill="#E2B34A" d="M57.765 51.53v10.53h-8.81v-3.11h3.9v-8.39c0-3.13-1.11-7.29-6.37-9.29-1.68-.62-3.26-1.22-4.99-1.69-.84-.25-1.8-.63-2.51-.97l1.75-2.07c.9.45 1.9.86 2.99 1.2 2.15.59 4.11 1.34 6.17 2.12C56.405 42.38 57.765 47.59 57.765 51.53zM31.915 62.06h-14.93v-3.11h9.7c1.08.53 2.3.77 3.52.69L31.915 62.06zM24.915 38.56c-.71.35-1.63.77-2.4 1.01-1.68.47-3.25 1.06-4.92 1.67l-.08.04c-5.26 1.99-6.37 6.15-6.37 9.28v8.39h3.9v3.11h-8.81V51.53c0-3.94 1.36-9.15 7.86-11.66l.11-.04c2.05-.78 3.99-1.52 6.07-2.1 1.09-.34 2.08-.74 2.98-1.19L24.915 38.56z"/><polygon fill="#E2B34A" points="47.015 58.95 47.015 62.06 40.715 62.06 38.515 58.95"/><path fill="#BAD5EA" d="M38.337,62.061h-4.043l-2.841-4.015c-0.213-0.3-0.572-0.456-0.941-0.397
		c-1.872,0.301-3.792-0.504-4.887-2.056c-0.834-1.173-1.105-2.628-0.795-3.985l1.794,2.541c0.146,0.213,0.378,0.359,0.63,0.397
		c0.252,0.049,0.514-0.01,0.727-0.165l4.044-2.851c0.436-0.31,0.533-0.921,0.232-1.358l-1.688-2.385
		c1.28,0.223,2.463,0.941,3.239,2.037c1.096,1.551,1.212,3.626,0.291,5.285c-0.174,0.33-0.155,0.727,0.058,1.028L38.337,62.061z"/><polygon fill="#9CB7CC" points="38.335 62.06 34.295 62.06 32.095 58.95 36.135 58.95"/></svg>