<svg xmlns="http://www.w3.org/2000/svg" width="300mm" height="300mm" viewBox="0 0 300 300"><g transform="translate(0 3)"><path fill="#8ebaff" stroke="#242424" stroke-linecap="round" stroke-linejoin="round" stroke-width="7.006" d="m 124.11528,184.12876 c -26.775629,0.0212 -86.33819,16.04421 -86.33819,43.34901 v 42.14252 c 0,4.8048 0.67733,9.46143 1.92615,13.86407 h 209.33678 c 1.24882,-4.40264 1.92615,-9.05927 1.92615,-13.86407 v -42.14252 c 0,-27.3048 -54.35559,-43.43368 -81.13123,-43.39135 z"/><path fill="#f6cf7f" stroke="#242424" stroke-width="7.091" d="m 143.99062,19.601504 c -31.45342,0 -56.98023,26.034989 -56.98023,58.143462 0,32.088234 25.52681,58.102984 56.98023,58.102984 31.47462,0 56.98025,-26.01475 56.98025,-58.102985 0,-32.108472 -25.50563,-58.143461 -56.98025,-58.143461 z"/><path fill="#fedbab" stroke="#242424" stroke-width="7.091" d="M191.25544 88.815953c-9.01692 0-16.31938 7.556446-16.31938 16.890877 0 9.33444 7.30245 16.91205 16.31938 16.91205 9.01694 0 16.34055-7.57761 16.34055-16.91205 0-9.334431-7.32361-16.890877-16.34055-16.890877zM97.657141 88.815953c-9.016931 0-16.340541 7.556446-16.340541 16.890877 0 9.33444 7.32361 16.91205 16.340541 16.91205 9.016929 0 16.340549-7.57761 16.340549-16.91205 0-9.334431-7.32362-16.890877-16.340549-16.890877z"/><path fill="#eff6fc" stroke="#242424" stroke-width="7.091" d="m 122.61245,188.93355 0.0212,-80.75024 h 45.635 l 1.84148,78.48543"/><path fill="#ffe8bd" stroke="#242424" stroke-width="7.091" d="m 101.49886,48.133918 c -2.984469,6.561619 -4.677789,13.906397 -4.677789,21.632174 v 49.317978 c 0,27.6858 21.420509,50.33396 47.539969,50.33396 v 0 c 26.16181,0 47.56115,-22.64816 47.56115,-50.33396 V 69.766092 c 0,-7.725777 -1.69332,-15.070555 -4.65663,-21.632174 z"/><path fill="#f6cf7f" d="m 192.2514,54.003772 c 6.81562,13.059739 5.52333,27.382734 4.57084,33.986687 -5.32896,-0.616066 -5.19001,0.2719 -4.71004,1.19561 0.26662,0.513119 -1.15185,0.192195 -1.74685,0.272279 -22.01782,2.963475 -61.05986,-8.641638 -73.91236,-29.111353 -4.27563,1.545156 -10.98541,1.015992 -14.24505,4.317968 -5.185789,5.291628 -2.476479,6.074788 -5.397459,9.651928 -2.92098,3.492474 -3.38664,3.111477 -3.95813,7.281281 -2.857481,-9.503765 -2.296564,-14.876252 1.99343,-25.451955 5.09183,-10.74893 11.993679,-20.647377 19.795589,-23.989227 45.3175,2.793979 63.38992,3.618206 63.38992,3.618206 12.10356,10.537578 14.22011,18.228576 14.22011,18.228576 z"/><path fill="none" stroke="#242424" stroke-width="7.091" d="m 96.450651,81.640506 c 1.65099,-16.02305 9.101599,-22.542334 20.002339,-21.293511 17.29529,25.105209 52.1891,33.415574 76.81327,31.199436"/><path fill="#eff6fc" d="m 168.51075,280.33295 23.45439,-90.7035 c -4.46889,-1.36165 -10.70967,-1.36038 -18.73738,-2.13592 -26.7863,-1.48066 -24.10829,-0.13415 -56.4014,0.41101 -12.78488,0.96715 -19.304979,2.03674 -27.963226,5.80278 8.311157,27.76229 32.077966,52.81683 24.437206,83.3738 11.60234,4.02688 40.47038,2.95832 53.47746,2.95832"/><path fill="#8ebaff" stroke="#242424" stroke-width="7.083" d="M190.02619 187.07874l-35.66133 91.35851c.0926.005-.64741 4.3504-.68515 4.6667l27.37626-.12217 5.55473-9.1594-6.56695-17.22058 19.33493-5.79807 17.67747-55.52445c-8.28343-3.75777-14.85706-6.32964-27.02996-8.20054zM100.3716 187.22799l35.66133 91.35851c-.0926.005.64741 4.3504.68515 4.6667l-27.37626-.12217-5.55473-9.1594 6.56695-17.22058-19.334922-5.79807-17.67747-55.52445c8.28343-3.75777 14.85706-6.32964 27.029952-8.20054z"/><path fill="#fff" stroke="#242424" stroke-width="6.893" d="M170.60021 86.254848c9.86911 0 17.8519 7.99636 17.8519 17.848502 0 9.85203-7.98279 17.82114-17.8519 17.82114-9.86912 0-17.87926-7.96911-17.87926-17.82114 0-9.852142 8.01014-17.848502 17.87926-17.848502zM115.84161 87.510288c9.86913 0 17.85191 7.99627 17.85191 17.848412 0 9.85212-7.98278 17.82114-17.85191 17.82114-9.86913 0-17.879234-7.96902-17.879234-17.82114 0-9.852142 8.010104-17.848412 17.879234-17.848412z"/><path fill="none" stroke="#242424" stroke-width="6.893" d="m 133.97291,104.40355 c 18.27885,-0.62796 18.27885,-0.62796 18.27885,-0.62796"/><g><path fill="#8ebaff" stroke="#242424" stroke-linecap="round" stroke-linejoin="round" stroke-width="7.006" d="m 124.11528,184.12876 c -26.775629,0.0212 -86.33819,16.04421 -86.33819,43.34901 v 42.14252 c 0,4.8048 0.67733,9.46143 1.92615,13.86407 h 209.33678 c 1.24882,-4.40264 1.92615,-9.05927 1.92615,-13.86407 v -42.14252 c 0,-27.3048 -54.35559,-43.43368 -81.13123,-43.39135 z"/><path fill="#f6cf7f" stroke="#242424" stroke-width="7.091" d="m 143.99062,19.601504 c -31.45342,0 -56.98023,26.034989 -56.98023,58.143462 0,32.088234 25.52681,58.102984 56.98023,58.102984 31.47462,0 56.98025,-26.01475 56.98025,-58.102985 0,-32.108472 -25.50563,-58.143461 -56.98025,-58.143461 z"/><path fill="#fedbab" stroke="#242424" stroke-width="7.091" d="M191.25544 88.815953c-9.01692 0-16.31938 7.556446-16.31938 16.890877 0 9.33444 7.30245 16.91205 16.31938 16.91205 9.01694 0 16.34055-7.57761 16.34055-16.91205 0-9.334431-7.32361-16.890877-16.34055-16.890877zM97.657141 88.815953c-9.016931 0-16.340541 7.556446-16.340541 16.890877 0 9.33444 7.32361 16.91205 16.340541 16.91205 9.016929 0 16.340549-7.57761 16.340549-16.91205 0-9.334431-7.32362-16.890877-16.340549-16.890877z"/><path fill="#eff6fc" stroke="#242424" stroke-width="7.091" d="m 122.61245,188.93355 0.0212,-80.75024 h 45.635 l 1.84148,78.48543"/><path fill="#ffe8bd" stroke="#242424" stroke-width="7.091" d="m 101.49886,48.133918 c -2.984469,6.561619 -4.677789,13.906397 -4.677789,21.632174 v 49.317978 c 0,27.6858 21.420509,50.33396 47.539969,50.33396 v 0 c 26.16181,0 47.56115,-22.64816 47.56115,-50.33396 V 69.766092 c 0,-7.725777 -1.69332,-15.070555 -4.65663,-21.632174 z"/><path fill="#f6cf7f" d="m 192.2514,54.003772 c 6.81562,13.059739 5.52333,27.382734 4.57084,33.986687 -5.32896,-0.616066 -5.19001,0.2719 -4.71004,1.19561 0.26662,0.513119 -1.15185,0.192195 -1.74685,0.272279 -22.01782,2.963475 -61.05986,-8.641638 -73.91236,-29.111353 -4.27563,1.545156 -10.98541,1.015992 -14.24505,4.317968 -5.185789,5.291628 -2.476479,6.074788 -5.397459,9.651928 -2.92098,3.492474 -3.38664,3.111477 -3.95813,7.281281 -2.857481,-9.503765 -2.296564,-14.876252 1.99343,-25.451955 5.09183,-10.74893 11.993679,-20.647377 19.795589,-23.989227 45.3175,2.793979 63.38992,3.618206 63.38992,3.618206 12.10356,10.537578 14.22011,18.228576 14.22011,18.228576 z"/><path fill="none" stroke="#242424" stroke-width="7.091" d="m 96.450651,81.640506 c 1.65099,-16.02305 9.101599,-22.542334 20.002339,-21.293511 17.29529,25.105209 52.1891,33.415574 76.81327,31.199436"/><path fill="#eff6fc" d="m 168.51075,280.33295 23.45439,-90.7035 c -4.46889,-1.36165 -10.70967,-1.36038 -18.73738,-2.13592 -26.7863,-1.48066 -24.10829,-0.13415 -56.4014,0.41101 -12.78488,0.96715 -19.304979,2.03674 -27.963226,5.80278 8.311157,27.76229 32.077966,52.81683 24.437206,83.3738 11.60234,4.02688 40.47038,2.95832 53.47746,2.95832"/><path fill="#8ebaff" stroke="#242424" stroke-width="7.083" d="M190.02619 187.07874l-35.66133 91.35851c.0926.005-.64741 4.3504-.68515 4.6667l27.37626-.12217 5.55473-9.1594-6.56695-17.22058 19.33493-5.79807 17.67747-55.52445c-8.28343-3.75777-14.85706-6.32964-27.02996-8.20054zM100.3716 187.22799l35.66133 91.35851c-.0926.005.64741 4.3504.68515 4.6667l-27.37626-.12217-5.55473-9.1594 6.56695-17.22058-19.334922-5.79807-17.67747-55.52445c8.28343-3.75777 14.85706-6.32964 27.029952-8.20054z"/><path fill="#fff" stroke="#242424" stroke-width="6.893" d="M170.60021 86.254848c9.86911 0 17.8519 7.99636 17.8519 17.848502 0 9.85203-7.98279 17.82114-17.8519 17.82114-9.86912 0-17.87926-7.96911-17.87926-17.82114 0-9.852142 8.01014-17.848502 17.87926-17.848502zM115.84161 87.510288c9.86913 0 17.85191 7.99627 17.85191 17.848412 0 9.85212-7.98278 17.82114-17.85191 17.82114-9.86913 0-17.879234-7.96902-17.879234-17.82114 0-9.852142 8.010104-17.848412 17.879234-17.848412z"/><path fill="none" stroke="#242424" stroke-width="6.893" d="m 133.97291,104.40355 c 18.27885,-0.62796 18.27885,-0.62796 18.27885,-0.62796"/></g></g></svg>