<svg xmlns="http://www.w3.org/2000/svg" id="Layer_1" enable-background="new 0 0 128 128" version="1" viewBox="0 0 128 128"><g id="XMLID_2856_"><g id="g3387"><path id="XMLID_2889_" fill="#ea5f6e" d="M64,82.9526978c-18.045105,0-34.3057251,7.5986938-45.7911987,19.7564697   C29.6942749,114.8669434,45.954895,122.4656982,64,122.4656982s34.3057251-7.5987549,45.7911987-19.7565308   C98.3057251,90.5513916,82.045105,82.9526978,64,82.9526978z"/><path id="XMLID_2888_" fill="#d34a5e" d="M101.9502563,109.7156372c2.8016357-2.1208496,5.4318848-4.4563599,7.8409424-7.0064697   C98.3057251,90.5513916,82.045105,82.9526978,64,82.9526978c-1.3549194,0-2.6959229,0.0566406-4.0294189,0.1410522   C77.6350708,85.2793579,92.8405762,95.3654175,101.9502563,109.7156372z"/><path id="XMLID_2887_" fill="#ff667c" d="M26.0497437,109.7156372c-2.8016357-2.1208496-5.4318848-4.4563599-7.8409424-7.0064697   C29.6942749,90.5513916,45.954895,82.9526978,64,82.9526978c1.3549194,0,2.6959229,0.0566406,4.0294189,0.1410522   C50.3649292,85.2793579,35.1594238,95.3654175,26.0497437,109.7156372z"/><path id="XMLID_2886_" fill="none" stroke="#234957" stroke-miterlimit="10" stroke-width="2" d="M64,81.9526978c-18.045105,0-34.3057251,7.5986938-45.7911987,19.7564697   C29.6942749,113.8669434,45.954895,121.4656982,64,121.4656982s34.3057251-7.5987549,45.7911987-19.7565308   C98.3057251,89.5513916,82.045105,81.9526978,64,81.9526978z"/><path id="XMLID_2885_" fill="#f4ceae" d="M73.0789642,71.5230103l-0.0155563,10.8593674   c0,5.5228424-4.47715,9.9999924-9.9999924,9.9999924h-0.0000229c-5.5228386,0-9.9999886-4.47715-9.9999886-9.9999924   l0.0155602-10.8593674"/><path id="XMLID_2884_" fill="#f4ceae" d="M73.0789642,71.5230103l-0.0155563,10.8593674   c0,5.5228424-4.47715,9.9999924-9.9999924,9.9999924h-0.0000229c-5.5228386,0-9.9999886-4.47715-9.9999886-9.9999924   l0.0155602-10.8593674"/><path id="XMLID_2883_" fill="#eeb490" d="M68.0141602,71L68,81.1208801c0,5.0368652-3.7277222,9.3229523-8.5725708,10.0172272   C60.7988281,91.8452606,62.350708,92.3169479,64,92.3169479c5.5228271,0,10-4.705925,10-10.2287521L74.015564,71H68.0141602z"/><path id="XMLID_2882_" fill="none" stroke="#234957" stroke-miterlimit="10" stroke-width="2" d="M73.0789642,76.5230103l-0.0155563,5.8593674   c0,5.5228424-4.47715,9.9999924-9.9999924,9.9999924h-0.0000229c-5.5228386,0-9.9999886-4.47715-9.9999886-9.9999924   l0.0155602-5.8593674"/><path id="XMLID_2881_" fill="#f4ceae" d="M40.0634041,48.9713097c0,2.2091331-1.7908592,3.9999924-3.9999962,3.9999924h-0.0000076    c-2.209137,0-3.9999962-1.7908592-3.9999962-3.9999924v-7.0000114c0-2.209137,1.7908592-3.9999962,3.9999962-3.9999962h0.0000076    c2.209137,0,3.9999962,1.7908592,3.9999962,3.9999962V48.9713097z" enable-background="new 0 0 128 128"/><path id="XMLID_2880_" fill="#eeb490" d="M94.0634079,48.8476982c0,2.209137-1.790863,3.9999962-4,3.9999962h-0.0000076    c-2.209137,0-3.9999924-1.7908592-3.9999924-3.9999962v-7.0000076c0-2.209137,1.7908554-3.9999962,3.9999924-3.9999962h0.0000076    c2.209137,0,4,1.7908592,4,3.9999962V48.8476982z" enable-background="new 0 0 128 128"/><path id="XMLID_2879_" fill="none" stroke="#234957" stroke-miterlimit="10" stroke-width="2" d="M40.0634041,48.9713097c0,2.2091331-1.7908592,3.9999924-3.9999962,3.9999924h-0.0000076    c-2.209137,0-3.9999962-1.7908592-3.9999962-3.9999924v-7.0000114c0-2.209137,1.7908592-3.9999962,3.9999962-3.9999962h0.0000076    c2.209137,0,3.9999962,1.7908592,3.9999962,3.9999962V48.9713097z" enable-background="new 0 0 128 128"/><path id="XMLID_2878_" fill="none" stroke="#234957" stroke-miterlimit="10" stroke-width="2" d="M94.0634079,48.8476982c0,2.209137-1.790863,3.9999962-4,3.9999962h-0.0000076    c-2.209137,0-3.9999924-1.7908592-3.9999924-3.9999962v-7.0000076c0-2.209137,1.7908554-3.9999962,3.9999924-3.9999962h0.0000076    c2.209137,0,4,1.7908592,4,3.9999962V48.8476982z" enable-background="new 0 0 128 128"/><path id="XMLID_2877_" fill="#608287" d="M54,12h-7c-3.8428345,0-6.9593506-2.864502-6.996521-6.6985474    C36.0566406,5.7929688,33,9.3856812,33,13.4656982v11C33,28.8839722,36.5817261,32,41,32h14h9h25    c1.6568527,0,3-0.9040508,3-2.555172V16.4206066C92,14.2191124,90.209137,12,88,12H68H54z" enable-background="new 0 0 128 128"/><path id="XMLID_2876_" fill="#90aaaf" d="M49,24.4656982v-11C49,13.1261597,49.0285645,13,49.0696411,12H47    c-1.0101318,0-1.9674683,0.0140991-2.8344727-0.3710327C44.0597534,12.147522,44,12.9157104,44,13.4656982v11    C44,28.8839722,47.5817261,32,52,32h3h2C52.5817261,32,49,28.8839722,49,24.4656982z" enable-background="new 0 0 128 128"/><g id="XMLID_2873_" enable-background="new 0 0 128 128"><path id="XMLID_2875_" fill="#4e676d" d="M37,12h7h3c-3.8428345,0-6.9593506-2.864502-6.996521-6.6985474     c-3.2503662,0.4047852-5.892334,2.6402893-6.7252197,5.7359314C34.3568115,11.7173767,35.6303711,12,37,12z"/><path id="XMLID_2874_" fill="#4e676d" d="M88,12h-9c2.2091675,0,4,2.2191162,4,4.4205933v13.024231     C83,31.0959473,81.6568604,32,80,32h9c1.6568604,0,3-0.9040527,3-2.5551758v-13.024231C92,14.2191162,90.2091675,12,88,12z"/></g><path id="XMLID_2872_" fill="#90aaaf" d="M38,24.4656982v-11c0-2.2338867,0.9203491-4.2479248,2.3974609-5.6974487    c-0.2444458-0.7014771-0.3864136-1.4509277-0.3939819-2.2339478C36.0566406,6.0258179,33,9.3856812,33,13.4656982v11    C33,28.8839722,36.5817261,32,41,32h5C41.5817261,32,38,28.8839722,38,24.4656982z" enable-background="new 0 0 128 128"/><path id="XMLID_2871_" fill="#f4ceae" stroke="#000" stroke-miterlimit="10" stroke-width="2" d="M89.0634079,32.4656982v20.6900253    c0,13.807106-11.1928711,24.9999771-24.9999771,24.9999771h-2.0000496c-13.807106,0-24.9999771-11.1928711-24.9999771-24.9999771    V32.4656982" enable-background="new 0 0 128 128"/><path id="XMLID_2870_" fill="#f4ceae" d="M89.2310867,32.1341782v20.6900177    c0,13.807106-11.1928711,24.9999771-24.9999771,24.9999771H62.23106c-13.8071022,0-24.9999733-11.1928711-24.9999733-24.9999771    V32.1341782" enable-background="new 0 0 128 128"/><path id="XMLID_2869_" fill="#eeb490" d="M83,32v21.1557007c0,12.9632568-9.8668823,23.5428772-22.5,24.7973328    C61.3223877,78.0346985,62.1561279,78,63,78h2c13.8071289,0,25-11.0371704,25-24.8442993V32H83z" enable-background="new 0 0 128 128"/><path id="XMLID_2868_" fill="#fff" d="M44.0634041,32.4656982v20.6900024    c0,12.9632568,10.1168823,23.7757263,22.7500038,25.0301819c-0.8223877,0.081665-1.4061279,0.2798157-2.25,0.2798157h-2.0000038    c-13.8071289,0-25.5-11.5028687-25.5-25.3099976V32.4656982H44.0634041z" enable-background="new 0 0 128 128" opacity=".16"/><rect id="XMLID_2867_" width="52" height="6" x="38" y="32" fill="#eeb490" enable-background="new 0 0 128 128"/><circle id="XMLID_2866_" cx="51.568" cy="43.959" r="2.5" fill="#234957" enable-background="new 0 0 128 128"/><path id="XMLID_2865_" fill="none" stroke="#234957" stroke-linecap="round" stroke-linejoin="round" stroke-miterlimit="10" stroke-width="2" d="M89.0634079,32.4656982v20.6900253    c0,13.807106-11.1928711,24.9999771-24.9999771,24.9999771h-2.0000496c-13.807106,0-24.9999771-11.1928711-24.9999771-24.9999771    V32.4656982" enable-background="new 0 0 128 128"/><path id="XMLID_2864_" fill="none" stroke="#234957" stroke-linecap="round" stroke-linejoin="round" stroke-miterlimit="10" stroke-width="2" d="m 37.063404,32.434446 52.01038,0 c 1.651123,0 2.989624,-1.338499 2.989624,-2.98962 l 0,-11.01038 c 0,-3.313708 -2.686297,-6.054872 -6,-6.051672 L 50.92728,12.417224 47,12.4 C 43.157165,12.4 40.040649,9.135498 40.003479,5.3014526 36.056641,5.7929688 33,9.3856812 33,13.465698 l 0,11 C 33,28.883972 36.581726,32.5 41,32.5 l 14,0" enable-background="new 0 0 128 128"/><circle id="XMLID_2862_" cx="74.559" cy="43.977" r="2.5" fill="#234957" enable-background="new 0 0 128 128"/><g id="XMLID_2859_"><line id="XMLID_2860_" x1="63" x2="64" y1="55" y2="55" stroke="#234957" stroke-linecap="round" stroke-linejoin="round" stroke-miterlimit="10" stroke-width="2"/></g><path id="XMLID_2858_" fill="#234957" d="M72.9760818,62.7074165c0,4.4794807-3.63134,8.1108131-8.110817,8.1108131h-2.4139366   c-4.4794807,0-8.110817-3.6313324-8.110817-8.1108131"/><path id="XMLID_2857_" fill="#ea5f6e" d="M61.6224556,66.1704102c-1.496994,0.6448441-2.4065552,2.195694-2.4008217,3.8256607   c0.0002708,0.0772324-0.0032196,0.0824814,0.0000153,0.1536102c1.0606689,0.5089111,2.2749023,0.6685486,3.5299072,0.6685486   h2.4139404c1.0218124,0,2.152153-0.3290024,2.9290085-0.6772537   C68.1378174,67.0040894,64.9253082,64.7476807,61.6224556,66.1704102z"/></g></g></svg>