<svg xmlns="http://www.w3.org/2000/svg" id="Layer_1" enable-background="new 0 0 138 138" viewBox="0 0 138 138"><g id="XMLID_443_"><g id="XMLID_1011_"><g id="XMLID_967_"><path id="XMLID_2915_" fill="#f9cfcf" d="M93.1,86.5c-2.9-4.3-7.3-5.3-8.3-5.5l-16.9-3.2l-6.9-1.3V55.1H39.4v21.5l-6.9,1.3l-5.2,1
				v53.6h68V93.7C95.3,92.5,95.1,89.5,93.1,86.5z"/><path id="XMLID_2728_" d="M95.3,133.5H5c-0.6,0-1-0.4-1-1V93.7c0-6.7,4.8-12.4,11.3-13.7l23-4.3V55.1c0-0.6,0.4-1,1-1h21.5
				c0.6,0,1,0.4,1,1v20.7l23,4.3c1.7,0.4,6.1,1.6,9,5.9c1.9,2.9,2.4,5.8,2.4,7.8c0,0,0,0,0,0v38.7C96.3,133,95.8,133.5,95.3,133.5z
				 M6,131.5h88.2V93.7c0-1.7-0.4-4.2-2-6.6c-2.5-3.6-6.2-4.7-7.7-5.1l-23.8-4.5c-0.5-0.1-0.8-0.5-0.8-1V56.1H40.4v20.5
				c0,0.5-0.3,0.9-0.8,1l-23.9,4.5C10.1,83.1,6,88,6,93.7V131.5z"/></g><g id="XMLID_966_"><path id="XMLID_2916_" fill="#66ffc8" d="M86.3,81.4c-0.4-0.1-0.9-0.2-1.3-0.3c-0.1,0-0.1,0-0.2,0l-23.9-4.5l-6.4,8.6l-4.3,15
				l-4.3-15l-6.4-8.6l-15.6,2.9v52.9h71.5V93.7C95.3,88.1,91.6,83.1,86.3,81.4z"/><path id="XMLID_2724_" d="M95.3,133.5H5c-0.6,0-1-0.4-1-1V93.7c0-6.7,4.8-12.4,11.3-13.7l23.9-4.5c0.4-0.1,0.8,0.1,1,0.4l6.4,8.6
				c0.1,0.1,0.1,0.2,0.2,0.3l3.3,11.7l3.3-11.7c0-0.1,0.1-0.2,0.2-0.3l6.4-8.6c0.2-0.3,0.6-0.5,1-0.4l23.9,4.5c0.1,0,0.2,0,0.3,0.1
				c0.4,0.1,0.9,0.2,1.4,0.4c5.8,1.8,9.7,7.2,9.7,13.2v0l0,0c0,0,0,0,0,0l0,0v38.7C96.3,133,95.8,133.5,95.3,133.5z M6,131.5h88.2
				V93.7c0-5.2-3.3-9.8-8.3-11.3c-0.4-0.1-0.8-0.2-1.2-0.3l-0.2,0l-23.3-4.4l-6,7.9l-4.2,14.9c-0.1,0.4-0.5,0.7-1,0.7
				s-0.8-0.3-1-0.7l-4.2-14.9l-6-7.9l-23.3,4.4C10.1,83.1,6,88,6,93.7V131.5z"/></g><g id="XMLID_965_"><path id="XMLID_2719_" fill="#ff484a" d="M45.8,85.2l-10.7,8.6l-2.6-15.9l6.9-1.3L45.8,85.2z"/><path id="XMLID_2720_" d="M35.1,94.8c-0.1,0-0.2,0-0.4-0.1c-0.3-0.1-0.6-0.4-0.6-0.8l-2.6-15.9c-0.1-0.5,0.3-1,0.8-1.1l6.9-1.3
				c0.4-0.1,0.8,0.1,1,0.4l6.4,8.6c0.3,0.4,0.2,1-0.2,1.4l-10.7,8.6C35.6,94.7,35.3,94.8,35.1,94.8z M33.6,78.7l2.2,13.2l8.7-6.9
				L39,77.7L33.6,78.7z"/></g><g id="XMLID_963_"><path id="XMLID_2715_" fill="#f9cfcf" d="M69.5,29.3v17.2c0,10.7-8.7,19.3-19.3,19.3s-19.3-8.7-19.3-19.3V29.3
				c0-10.7,8.7-19.3,19.3-19.3c3.1,0,6.1,0.7,8.8,2.1c0,0,0,0,0,0C65.4,15.4,69.5,22.1,69.5,29.3z"/><path id="XMLID_2716_" d="M50.1,66.9c-11.2,0-20.3-9.1-20.3-20.3V29.3c0-5.4,2.1-10.5,6-14.4c3.8-3.8,8.9-6,14.4-6c0,0,0,0,0,0
				c3.2,0,6.4,0.8,9.2,2.2l0,0c0,0,0,0,0,0c6.8,3.5,11,10.4,11,18.1c0,0,0,0,0,0v17.2C70.5,57.7,61.4,66.9,50.1,66.9z M50.2,11
				c-4.9,0-9.5,1.9-13,5.4c-3.5,3.5-5.4,8.1-5.4,13v17.2c0,10.1,8.2,18.3,18.3,18.3c10.1,0,18.3-8.2,18.3-18.3V29.3
				c0-6.9-3.8-13.2-10-16.3c0,0,0,0,0,0C55.9,11.7,53,11,50.2,11C50.2,11,50.2,11,50.2,11z"/></g><g id="XMLID_962_"><path id="XMLID_2711_" fill="#f9cfcf" d="M71.6,31.5h-2.1v12.9h2.1c3.6,0,6.4-2.9,6.4-6.4S75.2,31.5,71.6,31.5z"/><path id="XMLID_2712_" d="M71.6,45.4h-2.1c-0.6,0-1-0.4-1-1V31.5c0-0.6,0.4-1,1-1h2.1c4.1,0,7.4,3.3,7.4,7.4S75.7,45.4,71.6,45.4
				z M70.5,43.4h1.1c3,0,5.4-2.4,5.4-5.4s-2.4-5.4-5.4-5.4h-1.1V43.4z"/></g><g id="XMLID_961_"><path id="XMLID_2707_" fill="#f9cfcf" d="M28.8,31.5h-0.1c-3.6,0-6.4,2.9-6.4,6.4s2.9,6.4,6.4,6.4h2.3l-0.1-12.9H28.8z"/><path id="XMLID_2708_" d="M30.9,45.4h-2.3c-4.1,0-7.4-3.3-7.4-7.4s3.3-7.4,7.4-7.4h2.1c0.5,0,1,0.4,1,1l0.1,12.9
				c0,0.3-0.1,0.5-0.3,0.7C31.5,45.3,31.2,45.4,30.9,45.4z M28.7,32.5c-3,0-5.4,2.4-5.4,5.4s2.4,5.4,5.4,5.4h1.3l-0.1-10.9H28.7z"/></g><g id="XMLID_957_"><g id="XMLID_960_"><path id="XMLID_2703_" fill="#ff484a" d="M61.5,31h0.5c4.2,0,7.5,3.4,7.5,7.5v0c0,4.2-3.4,7.5-7.5,7.5h-0.5c-4.2,0-7.5-3.4-7.5-7.5
					v0C53.9,34.4,57.3,31,61.5,31z"/><path id="XMLID_2704_" d="M61.9,47.1h-0.5c-4.7,0-8.5-3.8-8.5-8.5s3.8-8.5,8.5-8.5h0.5c4.7,0,8.5,3.8,8.5,8.5
					S66.6,47.1,61.9,47.1z M61.5,32c-3.6,0-6.5,2.9-6.5,6.5c0,3.6,2.9,6.5,6.5,6.5h0.5c3.6,0,6.5-2.9,6.5-6.5c0-3.6-2.9-6.5-6.5-6.5
					H61.5z"/></g><g id="XMLID_959_"><path id="XMLID_2699_" fill="#ff484a" d="M38.5,31h0.5c4.2,0,7.5,3.4,7.5,7.5v0c0,4.2-3.4,7.5-7.5,7.5h-0.5c-4.2,0-7.5-3.4-7.5-7.5
					v0C30.9,34.4,34.3,31,38.5,31z"/><path id="XMLID_2700_" d="M38.9,47.1h-0.5c-4.7,0-8.5-3.8-8.5-8.5s3.8-8.5,8.5-8.5h0.5c4.7,0,8.5,3.8,8.5,8.5
					S43.6,47.1,38.9,47.1z M38.5,32c-3.6,0-6.5,2.9-6.5,6.5c0,3.6,2.9,6.5,6.5,6.5h0.5c3.6,0,6.5-2.9,6.5-6.5c0-3.6-2.9-6.5-6.5-6.5
					H38.5z"/></g><g id="XMLID_958_"><path id="XMLID_2696_" fill="#66ffc8" d="M46.5,38.5c2.5-1,5-1,7.5,0"/><path id="XMLID_2697_" d="M53.9,39.5c-0.1,0-0.2,0-0.4-0.1c-2.3-0.9-4.5-0.9-6.8,0c-0.5,0.2-1.1-0.1-1.3-0.6
					c-0.2-0.5,0.1-1.1,0.6-1.3c2.7-1,5.5-1,8.2,0c0.5,0.2,0.8,0.8,0.6,1.3C54.7,39.3,54.3,39.5,53.9,39.5z"/></g></g><g id="XMLID_956_"><path id="XMLID_2688_" fill="#ababb2" d="M62.7,9.8c-0.6,0-1.2,0.1-1.8,0.2c-1.3-2.6-3.4-3.8-7-4.7c-4.6-0.3-8.9-0.4-12.4,0
				c-8.4,0.9-15,7.1-15,15.4v0.2V25v10.7l4.3-4.3c1.8-2.1,3.4-4.8,4.8-7.3l2.1-0.2c8.1-0.7,16-3.3,23-7.4c0.1,0,0.2-0.1,0.2-0.1
				c0,0,3.9,9.4,8.6,15l4.3,4.3V20.9C73.8,14.8,68.8,9.8,62.7,9.8z"/><path id="XMLID_2693_" d="M73.8,36.8c-0.3,0-0.5-0.1-0.7-0.3l-4.3-4.3c-3.9-4.7-7.2-11.7-8.4-14.3c-6.9,4-14.7,6.4-22.7,7.1
				l-1.5,0.1c-1.6,2.8-3.2,5.2-4.7,7l-4.4,4.4c-0.3,0.3-0.7,0.4-1.1,0.2c-0.4-0.2-0.6-0.5-0.6-0.9v-15c0-8.5,6.7-15.4,15.9-16.4
				c3.2-0.4,7.2-0.4,12.6,0c0.1,0,0.1,0,0.2,0c3.2,0.8,5.7,1.9,7.3,4.6c0.4,0,0.8-0.1,1.3-0.1c6.7,0,12.1,5.4,12.1,12.1v14.9
				c0,0.4-0.2,0.8-0.6,0.9C74,36.7,73.9,36.8,73.8,36.8z M60.9,15.4c0.1,0,0.2,0,0.3,0c0.3,0.1,0.5,0.3,0.6,0.6
				c0,0.1,3.9,9.3,8.4,14.8l2.5,2.5V20.9c0-5.6-4.5-10.1-10.1-10.1c-0.6,0-1.1,0-1.7,0.1c-0.4,0.1-0.9-0.1-1.1-0.5
				c-1.1-2.2-2.8-3.3-6.2-4.1c-5.2-0.4-9-0.4-12.1,0c-8.3,0.9-14.2,6.9-14.2,14.4v12.6l2.6-2.6c1.4-1.7,3-4.1,4.6-7.1
				c0.2-0.3,0.5-0.5,0.8-0.5l2.1-0.2c7.9-0.7,15.7-3.2,22.6-7.3l0.2-0.1C60.5,15.5,60.7,15.4,60.9,15.4z"/></g><g id="XMLID_968_"><g id="XMLID_818_"><g id="XMLID_149_"><path id="XMLID_2689_" fill="#ff484a" d="M107.6,87.1c0,0-8.8-1.7-18-12.7c0,0,4.5-1.2,13.4,0.1c0,0-8.3-3.5-15.3-3.2
						c0,0-6.7-13.4-5.3-27.7c0,0,6.2,1.3,7.6,2c0,0-5.4-3.5-7.7-4l0.7-8.6c0,0,10.8,2.7,17.3,11.6c0,0,7.4,9.7,9.2,19.1
						C109.6,63.7,114.6,83.6,107.6,87.1z"/><path id="XMLID_2690_" d="M107.6,88.1c-0.1,0-0.1,0-0.2,0c-0.4-0.1-9.2-1.9-18.5-13c-0.2-0.3-0.3-0.6-0.2-0.9
						c0.1-0.3,0.4-0.6,0.7-0.7c0.1,0,1.8-0.5,4.9-0.5c-2.1-0.4-4.4-0.7-6.5-0.6c-0.4,0-0.8-0.2-0.9-0.6c-0.3-0.6-6.8-13.8-5.4-28.2
						c0-0.3,0.2-0.5,0.4-0.7c0.1-0.1,0.2-0.1,0.3-0.1c-0.5-0.1-0.8-0.6-0.7-1l0.7-8.6c0-0.3,0.2-0.6,0.4-0.7
						c0.2-0.2,0.5-0.2,0.8-0.2c0.5,0.1,11.3,2.9,17.9,12c0.3,0.4,7.5,9.9,9.3,19.5c0.5,2.1,5,20.7-2.5,24.5
						C107.9,88.1,107.7,88.1,107.6,88.1z M91.6,75.1c7.4,8.3,14.3,10.5,15.9,11c4.8-3,2.5-16.9,1.1-22.1c-1.7-9.2-8.9-18.7-9-18.7
						c-5-6.9-12.8-9.9-15.6-10.9l-0.6,6.6c2.5,0.9,6.6,3.5,7.1,3.8c0.4,0.3,0.6,0.9,0.3,1.3c-0.3,0.5-0.8,0.6-1.3,0.4
						c-0.8-0.4-3.9-1.2-6.3-1.7c-0.7,11.8,3.9,22.9,5.1,25.5c0.1,0,0.1,0,0.2,0c7,0,14.6,3.2,14.9,3.3c0.5,0.2,0.7,0.7,0.6,1.2
						c-0.1,0.5-0.6,0.8-1.1,0.7C97.3,74.7,93.6,74.9,91.6,75.1z"/></g><g id="XMLID_150_"><line id="XMLID_2682_" x1="107.6" x2="110.6" y1="87.1" y2="98.4" fill="#e96d64"/><path id="XMLID_2687_" d="M110.6,99.4c-0.4,0-0.8-0.3-1-0.7l-3.1-11.2c-0.1-0.5,0.2-1.1,0.7-1.2c0.5-0.1,1.1,0.2,1.2,0.7
						l3.1,11.2c0.1,0.5-0.2,1.1-0.7,1.2C110.8,99.4,110.7,99.4,110.6,99.4z"/></g></g><g id="XMLID_817_"><path id="XMLID_2907_" fill="#ffcc38" d="M123.3,105.7H94.7c-2.3,0-4.4,1.9-4.6,4.3L88,128.2c0,2.6,2.1,4.7,4.7,4.7h30.6V105.7z"/><path id="XMLID_2684_" d="M128.3,134H92.7c-3.2,0-5.7-2.6-5.7-5.7c0,0,0-0.1,0-0.1l2.1-18.2c0.3-2.9,2.7-5.2,5.6-5.2h31.6
					c2.9,0,5.3,2.3,5.6,5.2l2.1,18.2c0,0,0,0.1,0,0.1C134,131.4,131.4,134,128.3,134z M89,128.3c0,2,1.7,3.7,3.7,3.7h35.5
					c2,0,3.7-1.6,3.7-3.7l-2.1-18.2c-0.2-1.9-1.8-3.4-3.6-3.4H94.7c-1.8,0-3.4,1.5-3.6,3.4L89,128.3z"/></g><g id="XMLID_816_"><rect id="XMLID_2904_" width="11.4" height="5.6" x="102.1" y="100.1" fill="#66ffc8"/><path id="XMLID_2679_" d="M118.8,106.7h-16.7c-0.6,0-1-0.4-1-1v-5.6c0-0.6,0.4-1,1-1h16.7c0.6,0,1,0.4,1,1v5.6
					C119.8,106.3,119.4,106.7,118.8,106.7z M103.1,104.7h14.7v-3.6h-14.7V104.7z"/></g><g id="XMLID_815_"><rect id="XMLID_2906_" width="14.4" height="4.5" x="99.1" y="95.6" fill="#ff7e42"/><path id="XMLID_2675_" d="M121.9,101.2H99.1c-0.6,0-1-0.4-1-1v-4.5c0-0.6,0.4-1,1-1h22.8c0.6,0,1,0.4,1,1v4.5
					C122.9,100.7,122.4,101.2,121.9,101.2z M100.1,99.2h20.8v-2.5h-20.8V99.2z"/></g></g><g id="XMLID_964_"><path id="XMLID_2671_" fill="#ff484a" d="M67.8,77.9l-2.6,15.9l-10.7-8.6l6.4-8.6L67.8,77.9z"/><path id="XMLID_2672_" d="M65.2,94.8c-0.2,0-0.4-0.1-0.6-0.2L53.8,86c-0.4-0.3-0.5-0.9-0.2-1.4l6.4-8.6c0.2-0.3,0.6-0.5,1-0.4
				l6.9,1.3c0.5,0.1,0.9,0.6,0.8,1.1l-2.6,15.9c-0.1,0.4-0.3,0.6-0.6,0.8C65.4,94.8,65.3,94.8,65.2,94.8z M55.8,85l8.7,6.9l2.2-13.2
				l-5.4-1L55.8,85z"/></g><g id="XMLID_969_"><rect id="XMLID_2667_" width="8.1" height="47.3" x="45.8" y="85.2" fill="#ff484a"/><path id="XMLID_2668_" d="M53.9,133.5h-8.1c-0.6,0-1-0.4-1-1V85.2c0-0.6,0.4-1,1-1h8.1c0.6,0,1,0.4,1,1v47.3
				C54.9,133,54.5,133.5,53.9,133.5z M46.8,131.5h6.1V86.2h-6.1V131.5z"/></g></g><g id="XMLID_894_"><g id="XMLID_929_"><path id="XMLID_2666_" d="M21.9,127.8H10.1c-0.6,0-1-0.4-1-1s0.4-1,1-1h11.7c0.6,0,1,0.4,1,1S22.4,127.8,21.9,127.8z"/></g><g id="XMLID_896_"><path id="XMLID_2665_" d="M27.5,127.8h-1.6c-0.6,0-1-0.4-1-1s0.4-1,1-1h1.6c0.6,0,1,0.4,1,1S28,127.8,27.5,127.8z"/></g><g id="XMLID_895_"><path id="XMLID_2664_" d="M33.2,127.8h-1.6c-0.6,0-1-0.4-1-1s0.4-1,1-1h1.6c0.6,0,1,0.4,1,1S33.7,127.8,33.2,127.8z"/></g></g><g id="XMLID_930_"><g id="XMLID_933_"><path id="XMLID_2663_" d="M105.7,128.7H94c-0.6,0-1-0.4-1-1s0.4-1,1-1h11.8c0.6,0,1,0.4,1,1S106.3,128.7,105.7,128.7z"/></g><g id="XMLID_932_"><path id="XMLID_2662_" d="M111.3,128.7h-1.6c-0.6,0-1-0.4-1-1s0.4-1,1-1h1.6c0.6,0,1,0.4,1,1S111.9,128.7,111.3,128.7z"/></g><g id="XMLID_931_"><path id="XMLID_2661_" d="M117,128.7h-1.6c-0.6,0-1-0.4-1-1s0.4-1,1-1h1.6c0.6,0,1,0.4,1,1S117.6,128.7,117,128.7z"/></g></g></g></svg>