<svg width="100" height="100" viewBox="0 0 100 100" fill="none" xmlns="http://www.w3.org/2000/svg">
<mask id="mask0" mask-type="alpha" maskUnits="userSpaceOnUse" x="0" y="0" width="100" height="100">
<path d="M0 100V0H99.9687V100H0Z" fill="white"/>
</mask>
<g mask="url(#mask0)">
<path fill-rule="evenodd" clip-rule="evenodd" d="M99.9688 49.9687C99.9688 77.6001 77.5688 100 49.9375 100C22.3062 100 -0.09375 77.6001 -0.09375 49.9687C-0.09375 22.3374 22.3062 -0.0625458 49.9375 -0.0625458C77.5688 -0.0625458 99.9688 22.3374 99.9688 49.9687Z" fill="#FF0000"/>
</g>
<path fill-rule="evenodd" clip-rule="evenodd" d="M49.9375 87.4922C49.9375 87.4922 49.0979 83.7351 48.0223 78.0238C31.6495 77.1294 18.668 64.9296 18.668 49.9687C18.668 34.4262 32.6673 21.8261 49.9375 21.8261C67.2077 21.8261 81.2071 34.4262 81.2071 49.9687C81.2071 60.5925 74.6623 69.8343 65.0079 74.6248C57.8253 82.7329 49.9375 87.4922 49.9375 87.4922Z" fill="#638DA0"/>
<path fill-rule="evenodd" clip-rule="evenodd" d="M76.5164 44.9656C76.5164 68.3599 49.9373 84.3652 49.9373 84.3652C49.9373 84.3652 35.2578 18.6992 49.9373 18.6992C64.6168 18.6992 76.5164 30.4596 76.5164 44.9656Z" fill="#FFFFFE"/>
<path fill-rule="evenodd" clip-rule="evenodd" d="M81.2071 46.8418C81.2071 62.3843 67.2077 74.9844 49.9375 74.9844C32.6673 74.9844 18.668 62.3843 18.668 46.8418C18.668 31.2992 32.6673 18.6992 49.9375 18.6992C67.2077 18.6992 81.2071 31.2992 81.2071 46.8418Z" fill="#FFFFFE"/>
<path fill-rule="evenodd" clip-rule="evenodd" d="M53.0641 46.8417C53.0736 46.4253 52.9997 46.0112 52.8469 45.6238C52.694 45.2363 52.4653 44.8832 52.1742 44.5854C51.8831 44.2875 51.5354 44.0508 51.1515 43.8892C50.7676 43.7275 50.3553 43.6442 49.9388 43.6441C49.5223 43.644 49.1099 43.7271 48.7259 43.8886C48.342 44.05 47.9942 44.2865 47.7029 44.5843C47.4116 44.882 47.1827 45.2349 47.0297 45.6223C46.8767 46.0097 46.8026 46.4238 46.8118 46.8402C46.8299 47.6572 47.1671 48.4347 47.7512 49.0062C48.3353 49.5777 49.12 49.8978 49.9372 49.898C50.7544 49.8982 51.5392 49.5785 52.1237 49.0073C52.7081 48.4361 53.0457 47.6587 53.0641 46.8417Z" fill="#4C5665"/>
<path fill-rule="evenodd" clip-rule="evenodd" d="M65.572 46.8417C65.5814 46.4253 65.5075 46.0112 65.3547 45.6238C65.2019 45.2363 64.9732 44.8832 64.682 44.5854C64.3909 44.2875 64.0432 44.0508 63.6593 43.8892C63.2754 43.7275 62.8631 43.6442 62.4466 43.6441C62.0301 43.644 61.6177 43.7271 61.2338 43.8886C60.8498 44.05 60.502 44.2865 60.2107 44.5843C59.9194 44.882 59.6905 45.2349 59.5375 45.6223C59.3845 46.0097 59.3104 46.4238 59.3196 46.8402C59.3377 47.6572 59.6749 48.4347 60.259 49.0062C60.8431 49.5777 61.6278 49.8978 62.445 49.898C63.2622 49.8982 64.0471 49.5785 64.6315 49.0073C65.2159 48.4361 65.5535 47.6587 65.572 46.8417Z" fill="#4C5665"/>
<path fill-rule="evenodd" clip-rule="evenodd" d="M40.5563 46.8417C40.5657 46.4253 40.4919 46.0112 40.3391 45.6238C40.1862 45.2363 39.9575 44.8832 39.6664 44.5854C39.3753 44.2875 39.0275 44.0508 38.6437 43.8892C38.2598 43.7275 37.8475 43.6442 37.431 43.6441C37.0144 43.644 36.6021 43.7271 36.2181 43.8886C35.8342 44.05 35.4863 44.2865 35.1951 44.5843C34.9038 44.882 34.6749 45.2349 34.5219 45.6223C34.3689 46.0097 34.2948 46.4238 34.304 46.8402C34.3221 47.6572 34.6592 48.4347 35.2434 49.0062C35.8275 49.5777 36.6122 49.8978 37.4294 49.898C38.2466 49.8982 39.0314 49.5785 39.6159 49.0073C40.2003 48.4361 40.5379 47.6587 40.5563 46.8417Z" fill="#4C5665"/>
</svg>
