<svg width="50" height="50" viewBox="0 0 50 50" fill="none" xmlns="http://www.w3.org/2000/svg">
<path d="M25 50C38.8071 50 50 38.8071 50 25C50 11.1929 38.8071 0 25 0C11.1929 0 0 11.1929 0 25C0 38.8071 11.1929 50 25 50Z" fill="#6564DB"/>
<path d="M25 37.5C26.3807 37.5 27.5 36.3807 27.5 35C27.5 33.6193 26.3807 32.5 25 32.5C23.6193 32.5 22.5 33.6193 22.5 35C22.5 36.3807 23.6193 37.5 25 37.5Z" fill="#F7F7F8"/>
<path d="M25 27.5C24.337 27.5 23.7011 27.2366 23.2322 26.7678C22.7634 26.2989 22.5 25.663 22.5 25V15C22.5 14.337 22.7634 13.7011 23.2322 13.2322C23.7011 12.7634 24.337 12.5 25 12.5C25.663 12.5 26.2989 12.7634 26.7678 13.2322C27.2366 13.7011 27.5 14.337 27.5 15V25C27.5 25.663 27.2366 26.2989 26.7678 26.7678C26.2989 27.2366 25.663 27.5 25 27.5Z" fill="#F7F7F8"/>
</svg>
