<svg width="64" height="64" viewBox="0 0 64 64" fill="none" xmlns="http://www.w3.org/2000/svg">
<mask id="mask0" mask-type="alpha" maskUnits="userSpaceOnUse" x="0" y="0" width="64" height="64">
<path d="M0 63.96V0H63.94V63.96H0Z" fill="white"/>
</mask>
<g mask="url(#mask0)">
<path fill-rule="evenodd" clip-rule="evenodd" d="M63.9399 31.96C63.9399 49.633 49.6129 63.96 31.9399 63.96C14.2669 63.96 -0.0600586 49.633 -0.0600586 31.96C-0.0600586 14.287 14.2669 -0.0400009 31.9399 -0.0400009C49.6129 -0.0400009 63.9399 14.287 63.9399 31.96Z" fill="#23CE6B"/>
</g>
<path fill-rule="evenodd" clip-rule="evenodd" d="M47.9399 47.96H15.9399C14.8791 47.96 13.8617 47.5386 13.1115 46.7884C12.3614 46.0383 11.9399 45.0209 11.9399 43.96V23.96V41.96C11.9399 43.0157 12.3572 44.0286 13.1009 44.7779C13.8446 45.5272 14.8543 45.9521 15.9099 45.96H47.9699C49.0256 45.9521 50.0353 45.5272 50.779 44.7779C51.5227 44.0286 51.94 43.0157 51.9399 41.96V43.96C51.9399 45.0209 51.5185 46.0383 50.7684 46.7884C50.0182 47.5386 49.0008 47.96 47.9399 47.96Z" fill="#638DA0"/>
<path fill-rule="evenodd" clip-rule="evenodd" d="M51.9399 41.96C51.9399 43.0209 51.5185 44.0383 50.7684 44.7884C50.0182 45.5386 49.0008 45.96 47.9399 45.96H15.9399C14.8791 45.96 13.8617 45.5386 13.1115 44.7884C12.3614 44.0383 11.9399 43.0209 11.9399 41.96V21.96C11.9399 20.8991 12.3614 19.8817 13.1115 19.1316C13.8617 18.3814 14.8791 17.96 15.9399 17.96H47.9399C49.0008 17.96 50.0182 18.3814 50.7684 19.1316C51.5185 19.8817 51.9399 20.8991 51.9399 21.96V41.96Z" fill="#DEDECA"/>
<path fill-rule="evenodd" clip-rule="evenodd" d="M51.2681 43.92C51.1496 43.7753 51.0234 43.6371 50.8901 43.506L36.6021 32.812L37.6111 31.96L50.8901 43.188C51.0701 43.387 51.2181 43.581 51.3511 43.773C51.324 43.8223 51.2963 43.8713 51.2681 43.92ZM12.6121 43.92C12.5838 43.8713 12.5561 43.8223 12.5291 43.773C12.6621 43.581 12.8101 43.387 12.9901 43.188L26.2851 31.947L27.2861 32.806L12.9901 43.506C12.8567 43.6371 12.7305 43.7753 12.6121 43.92Z" fill="#B3B2A4"/>
<path fill-rule="evenodd" clip-rule="evenodd" d="M35.4641 31.96C33.5261 30.06 30.3541 30.06 28.4161 31.96L12.9901 43.506C12.8101 43.682 12.6621 43.854 12.5291 44.024C12.8824 44.6134 13.3822 45.1015 13.9799 45.4407C14.5776 45.7799 15.2528 45.9588 15.9401 45.96H47.9401C49.3911 45.96 50.6491 45.18 51.3511 44.024C51.2092 43.8412 51.0552 43.6681 50.8901 43.506L35.4641 31.96Z" fill="#DEDECA"/>
<path fill-rule="evenodd" clip-rule="evenodd" d="M37.6111 31.96L35.4641 30.145C34.4951 29.072 33.2171 28.535 31.9401 28.535C30.6631 28.535 29.3851 29.072 28.4161 30.145L26.2851 31.947L12.5291 20.148C13.2301 18.843 14.4861 17.962 15.9351 17.96H47.9451C49.3941 17.962 50.6501 18.843 51.3511 20.148C51.2101 20.3524 51.0561 20.5474 50.8901 20.732L37.6111 31.96Z" fill="#B3B2A4"/>
<path fill-rule="evenodd" clip-rule="evenodd" d="M36.6019 32.812L35.4639 31.96C34.5214 31.0414 33.256 30.5297 31.9399 30.535C30.6239 30.5297 29.3584 31.0414 28.4159 31.96L27.2859 32.806L26.2849 31.947L28.4159 30.145C29.3849 29.072 30.6629 28.535 31.9399 28.535C33.2169 28.535 34.4949 29.072 35.4639 30.145L37.6109 31.96L36.6019 32.812Z" fill="#939388"/>
<path fill-rule="evenodd" clip-rule="evenodd" d="M31.9399 35.385C30.6629 35.385 29.3849 34.848 28.4159 33.775L27.2859 32.806L28.4159 31.96C29.3584 31.0414 30.6238 30.5297 31.9399 30.535C33.2559 30.5297 34.5214 31.0414 35.4639 31.96L36.6019 32.812L35.4639 33.775C34.4949 34.848 33.2169 35.385 31.9399 35.385Z" fill="#B3B2A4"/>
<path fill-rule="evenodd" clip-rule="evenodd" d="M28.4161 31.96C30.3541 33.86 33.5261 33.86 35.4641 31.96L50.8901 20.414C51.0701 20.238 51.2181 20.066 51.3511 19.896C50.9976 19.3066 50.4978 18.8187 49.9001 18.4794C49.3025 18.1402 48.6273 17.9613 47.9401 17.96H15.9401C14.4891 17.96 13.2301 18.74 12.5291 19.896C12.6621 20.066 12.8101 20.238 12.9901 20.414L28.4161 31.96Z" fill="#FFFFFE"/>
</svg>
