<svg width="71" height="70" viewBox="0 0 71 70" fill="none" xmlns="http://www.w3.org/2000/svg">
<path d="M70.021 55.055L63.021 30.555C62.849 29.9052 62.4934 29.3187 61.9969 28.8657C61.5003 28.4126 60.8838 28.1121 60.221 28L49.021 25.83L45.766 26.88L51.681 56L65.681 59.5C65.96 59.5337 66.2421 59.5337 66.521 59.5C66.99 59.5028 67.4547 59.4112 67.8876 59.2308C68.3205 59.0505 68.7128 58.7849 69.041 58.45C69.4909 58.0219 69.8187 57.4819 69.9909 56.8853C70.1632 56.2887 70.1735 55.657 70.021 55.055ZM24.276 26.88L21.021 25.83L9.82104 28C9.19239 28.1304 8.61172 28.4312 8.14256 28.8695C7.67341 29.3078 7.33385 29.8667 7.16104 30.485L0.16104 54.985C-0.0290432 55.5898 -0.0513001 56.2348 0.0966448 56.8513C0.24459 57.4677 0.557181 58.0324 1.00104 58.485C1.33223 58.8136 1.72578 59.0727 2.15854 59.247C2.5913 59.4213 3.05455 59.5073 3.52104 59.5C3.80002 59.5337 4.08206 59.5337 4.36104 59.5L18.361 56L24.276 26.88Z" fill="#0078EE"/>
<path d="M37.1203 0.7C36.5145 0.245623 35.7776 0 35.0203 0C34.263 0 33.5261 0.245623 32.9203 0.7C17.8353 12.005 14.1953 50.54 14.0203 52.185C13.9682 52.927 14.1539 53.6663 14.5504 54.2956C14.9469 54.925 15.5336 55.4116 16.2253 55.685L33.7253 62.685H36.3153L53.8153 55.685C54.5071 55.4116 55.0937 54.925 55.4902 54.2956C55.8867 53.6663 56.0724 52.927 56.0203 52.185C56.0203 50.54 52.2053 12.005 37.1203 0.7Z" fill="#55ABFF"/>
<path d="M35.0205 31.5C36.9535 31.5 38.5205 29.933 38.5205 28C38.5205 26.067 36.9535 24.5 35.0205 24.5C33.0875 24.5 31.5205 26.067 31.5205 28C31.5205 29.933 33.0875 31.5 35.0205 31.5Z" fill="#0078EE"/>
<path d="M35.0205 70C34.0923 70 33.202 69.6313 32.5456 68.9749C31.8893 68.3185 31.5205 67.4283 31.5205 66.5V38.5C31.5205 37.5717 31.8893 36.6815 32.5456 36.0251C33.202 35.3687 34.0923 35 35.0205 35C35.9488 35 36.839 35.3687 37.4954 36.0251C38.1518 36.6815 38.5205 37.5717 38.5205 38.5V66.5C38.5205 67.4283 38.1518 68.3185 37.4954 68.9749C36.839 69.6313 35.9488 70 35.0205 70Z" fill="#0078EE"/>
</svg>
