<svg width="80" height="102" viewBox="0 0 80 102" fill="none" xmlns="http://www.w3.org/2000/svg">
<path d="M56.9241 35.9402L56.9011 35.8976C56.6125 35.3737 56.3167 34.8145 55.9958 34.1884C54.4333 31.1344 50.7327 29.7955 47.571 31.1407C40.9792 33.946 34.9849 34.3013 28.7066 32.259L28.6534 32.2424C26.6449 31.6563 24.5586 32.685 23.8003 34.6354L23.7811 34.6877C21.5788 40.9117 17.6474 45.4507 11.4089 48.9724C8.41689 50.661 7.2257 54.412 8.69734 57.5113C8.99696 58.1426 9.25998 58.7178 9.50189 59.2697L9.54909 59.3717C12.65 65.975 16.5095 74.1929 22.877 80.2396C26.3783 83.5647 30.3882 85.9788 34.7953 87.4156C39.8145 89.0516 45.5473 89.4885 51.8343 88.7137C52.0388 88.6885 52.2444 88.6483 52.4476 88.5943C52.7337 88.5179 53.0088 88.4145 53.271 88.2852C53.5332 88.1559 53.783 88.0005 54.0175 87.8202C54.1839 87.692 54.3421 87.5522 54.4873 87.4044C58.9214 82.8884 62.06 78.0757 63.8152 73.0999C65.3571 68.7289 65.8829 64.0772 65.3776 59.2735C64.4567 50.5136 60.2802 42.433 56.9241 35.9402Z" stroke="#F7F7F8" stroke-width="2.98136" stroke-miterlimit="10"/>
<path d="M48.921 3.78575C45.8317 5.87328 45.0167 10.085 47.1042 13.1743C49.1917 16.2636 53.4033 17.0788 56.4927 14.9913C59.5819 12.9039 60.397 8.69208 58.3095 5.6027C56.2221 2.51345 52.0102 1.69835 48.921 3.78575Z" stroke="#F7F7F8" stroke-width="1.30026" stroke-miterlimit="10"/>
</svg>
